<?xml version="1.0" encoding="utf-8"?>
<!-- Generator: Adobe Illustrator 23.0.3, SVG Export Plug-In . SVG Version: 6.00 Build 0)  -->
<svg version="1.1" id="Capa_1" xmlns="http://www.w3.org/2000/svg" xmlns:xlink="http://www.w3.org/1999/xlink" x="0px" y="0px"
	 viewBox="0 0 1200 1200" enable-background="new 0 0 1200 1200" xml:space="preserve">
<path d="M114.72,824.421c-0.838,0.793-1.907,1.185-2.976,1.185c-1.148,0-2.296-0.454-3.148-1.357
	c-1.645-1.74-1.568-4.482,0.172-6.124c18.203-17.205,45.727-24.587,70.079-18.835c2.33,0.55,3.772,2.886,3.221,5.213
	c-0.55,2.33-2.903,3.769-5.213,3.221C155.239,802.618,130.858,809.168,114.72,824.421z M151.287,837.058
	c28.666-11.955,63.848-8.502,89.634,8.801c0.742,0.496,1.58,0.733,2.412,0.733c1.394,0,2.764-0.674,3.599-1.918
	c1.334-1.989,0.804-4.68-1.182-6.011c-28.573-19.171-66.046-22.846-97.798-9.605c-2.209,0.922-3.253,3.458-2.333,5.667
	C146.54,836.931,149.076,837.972,151.287,837.058z M141.978,910.334c1.083,1.379,1.481,3.176,1.08,4.886
	c-0.508,2.155-0.742,6.124-0.987,10.327c-0.773,13.112-1.735,29.43-11.518,36.748c-3.083,2.307-6.677,3.464-10.731,3.464
	c-1.808,0-3.707-0.231-5.69-0.691c0,0,0,0-0.003,0c-7.783-1.805-14.023-9.092-15.171-17.724c-0.897-6.719,1.095-14.104,5.608-20.796
	c7.518-11.134,20.753-18.618,32.92-18.426C139.245,908.139,140.895,908.951,141.978,910.334z M71.848,886.009
	c-6.161,0.66-11.405,4.279-13.69,9.439v0.003c-2.282,5.159-1.43,11.473,2.223,16.474c3.32,4.544,8.37,7.216,13.473,7.216
	c0.513,0,1.032-0.028,1.546-0.085c5.611-0.604,10.652-4.499,13.157-10.164c2.505-5.664,1.994-12.014-1.331-16.57
	S78.018,885.335,71.848,886.009z M133.826,681.483c-1.281,0.33-2.482,0.632-3.422,0.948c-5.724,1.932-12.212,4.121-19.024,4.626
	c-0.762,0.059-1.506,0.085-2.237,0.085c-6.999,0.003-12.624-2.576-15.639-7.233c-4.846-7.484-1.154-16.945,5.044-21.422
	c4.657-3.362,10.697-4.75,18.457-4.245c7.853,0.045,19.267,2.739,26.079,7.845c4.042,3.03,5.729,6.384,5.018,9.975
	C146.904,678.112,139.956,679.903,133.826,681.483z M132.974,697.717c-6.166-2.141-12.392-0.477-16.274,4.358
	c-4.293,5.348-4.671,13.004-0.937,19.052c2.827,4.584,8.065,7.21,13.275,7.21c2.384-0.003,4.762-0.55,6.9-1.712
	c5.255-2.855,8.206-8.463,7.704-14.638C143.107,705.39,138.918,699.791,132.974,697.717z M1146.403,876.641
	c-7.698,3.14-14.886,4.339-21.715,4.339c-11.303,0.003-21.642-3.281-31.766-6.494c-10.186-3.236-19.808-6.291-30.528-6.291
	c-13.633,0-20.299,2.81-27.354,5.786c-7.805,3.292-15.876,6.694-31.842,6.694c-15.963,0-24.034-3.402-31.837-6.694
	c-7.055-2.976-13.718-5.786-27.346-5.786c-13.628,0-20.291,2.81-27.346,5.786c-7.803,3.292-15.87,6.694-31.834,6.694
	s-24.034-3.402-31.837-6.694c-7.055-2.976-13.718-5.786-27.346-5.786c-13.625,0-20.288,2.81-27.343,5.786
	c-7.803,3.292-15.873,6.694-31.837,6.694c-15.961,0-24.028-3.402-31.831-6.694c-7.052-2.976-13.715-5.786-27.34-5.786
	s-20.288,2.81-27.34,5.786c-7.803,3.292-15.87,6.694-31.831,6.694s-24.026-3.402-31.828-6.694
	c-7.052-2.976-13.715-5.786-27.337-5.786c-13.625,0-20.288,2.81-27.343,5.786c-7.803,3.292-15.87,6.694-31.834,6.694
	c-15.961,0-24.028-3.402-31.828-6.694c-7.052-2.976-13.715-5.786-27.337-5.786s-20.282,2.81-27.334,5.786
	c-7.8,3.292-15.868,6.694-31.825,6.694c-15.831,0-24.609-3.264-33.095-6.418c-5.215-1.939-10.28-3.788-17.073-4.829
	c30.501,29.507,58.053,41.503,84.072,36.604c3.997-0.756,8.11-1.724,12.09-2.657c10.361-2.434,21.095-4.962,32.234-4.474
	c11.755,0.502,22.762,4.282,33.402,7.935c10.466,3.594,20.347,6.987,30.573,7.332c9.205,0.276,18.325-1.865,27.978-4.169
	c4.97-1.185,10.107-2.412,15.298-3.284l1.224-0.206c15.413-2.59,41.219-6.939,62.756,8.618c2.587,1.867,3.171,5.478,1.3,8.065
	c-1.862,2.584-5.47,3.174-8.065,1.3c-17.622-12.725-39.56-9.03-54.074-6.59l-1.233,0.209c-4.801,0.804-9.743,1.986-14.525,3.126
	c-9.972,2.381-20.274,4.829-31.05,4.48c-11.952-0.403-23.128-4.24-33.935-7.952c-10.316-3.543-20.062-6.889-30.147-7.32
	c-9.58-0.42-19.055,1.817-29.095,4.178c-4.102,0.965-8.341,1.961-12.59,2.762c-31.473,5.952-63.969-8.669-99.341-44.677
	c-20.908-21.286-44.94-39.817-71.428-55.075c-44.618-25.704-103.736-53.549-165.288-40.635c-11.557,2.426-27.656,7.884-38.734,20.13
	c-9.994,11.044-13.724,26.553-9.281,38.593c4.691,12.708,19.506,20.641,31.098,16.64c1.797-0.618,3.791-0.316,5.32,0.815
	c1.529,1.128,2.406,2.942,2.341,4.843c-0.234,6.813,1.997,15.159,8.959,18.161c6.756,2.922,15.425,1.236,20.601-4
	c1.337-1.354,3.238-1.952,5.126-1.625c1.87,0.336,3.456,1.568,4.243,3.298c3.647,8.04,11.662,13.955,20.418,15.075
	c7.174,0.911,12.406-2.271,19.016-6.313c5.298-3.238,11.303-6.911,18.869-8.254c36.043-6.412,56.971,10.161,81.214,29.332
	c25.244,19.958,56.658,44.796,92.305,47.992c3.179,0.285,5.523,3.092,5.238,6.271c-0.271,3.001-2.79,5.261-5.749,5.261
	c-0.172,0-0.347-0.008-0.522-0.023c-39.078-3.506-71.992-29.529-98.438-50.438c-8.092-6.399-15.589-12.298-23.252-17.047
	c5.791,7.961,10.451,16.466,14.992,24.813c9.168,16.849,17.828,32.762,35.021,43.687c2.02,1.284,2.615,3.961,1.331,5.98
	c-0.824,1.298-2.226,2.008-3.659,2.008c-0.796,0-1.599-0.217-2.322-0.677c-19.083-12.127-28.694-29.783-37.986-46.858
	c-7.557-13.887-14.697-27.007-26.607-37.507c-0.123-0.109-0.221-0.236-0.329-0.355c-7.583-2.121-15.822-2.822-25.243-1.63
	c19.915,19.206,29.281,49.253,22.931,76.256c-0.626,2.66-2.999,4.454-5.619,4.454c-0.44,0-0.883-0.048-1.329-0.152
	c-3.106-0.731-5.032-3.842-4.302-6.948c5.952-25.307-4.22-53.752-24.742-69.683c-1.93,1.029-3.834,2.185-5.78,3.375
	c-7.171,4.381-15.312,9.363-26.508,7.913c-10.268-1.312-19.831-7.196-25.879-15.58c-8.226,4.894-18.748,5.805-27.617,1.986
	c-8.401-3.625-14.011-11.738-15.537-21.972c-15.715,1.413-32.508-9.021-38.443-25.1c-5.986-16.214-1.453-35.975,11.549-50.344
	c10.418-11.515,25.952-19.704,44.928-23.684c41.555-8.724,81.584-0.215,117.156,13.999c0.266-0.478,0.623-0.915,1.076-1.277
	c3.444-2.751,6.777-5.418,10.025-8.021c-3.959-2.882-7.443-7.133-9.277-11.731c-7.34,2.124-15.583,1.171-22.099-2.945
	c-6.031-3.811-10.248-10.127-11.814-17.033c-3.36,1.044-7.004,1.444-10.781,1.154c-8.305-0.632-15.975-4.485-21.041-10.564
	c-9.064-10.883-10.079-27.783-2.465-41.1c6.502-11.371,18.587-19.789,33.157-23.097c11.354-2.581,24.116-2.223,39.021,1.097
	c29.664,6.605,57.377,22.395,78.236,44.5c5.725-4.864,11.408-9.815,16.884-14.875c2.42-2.237,5.151-4.499,8.042-6.897
	c11.746-9.729,25.061-20.759,22.804-34.466c-0.654-3.98-6.468-14.525-9.284-15.145c-0.028,0.001-0.055-0.006-0.084-0.006
	c-0.028,0.001-0.054,0.008-0.083,0.008c-0.135,0-0.264-0.028-0.396-0.04c-0.117-0.011-0.234-0.014-0.348-0.035
	c-0.229-0.04-0.446-0.104-0.661-0.178c-0.035-0.012-0.073-0.02-0.107-0.034c-0.764-0.286-1.42-0.781-1.91-1.417
	c-0.015-0.019-0.032-0.037-0.047-0.057c-0.132-0.177-0.244-0.366-0.348-0.562c-0.034-0.062-0.071-0.121-0.101-0.184
	c-0.076-0.163-0.133-0.333-0.189-0.506c-0.035-0.108-0.074-0.213-0.101-0.324c-0.035-0.147-0.052-0.299-0.071-0.451
	c-0.014-0.105-0.044-0.205-0.049-0.312c-0.002-0.041,0.007-0.079,0.006-0.12c-0.001-0.038-0.011-0.073-0.011-0.111v-76.953
	l-0.606,0.693c-0.858,0.979-2.056,1.481-3.264,1.481c-1.013,0-2.028-0.353-2.849-1.072c-1.803-1.577-1.986-4.313-0.409-6.113
	l1.974-2.256c-11.286-10.079-22.543-20.192-33.876-30.215c-21.985-19.431-44.074-38.74-66.3-57.881l-8.755,8.374
	c-0.841,0.804-1.918,1.202-2.996,1.202c-1.14,0-2.279-0.449-3.131-1.337c-1.653-1.729-1.594-4.474,0.135-6.127l8.134-7.78
	c-15.698-13.472-31.45-26.876-47.329-40.121c-6.696-5.576-13.423-11.112-20.168-16.624l-7.092,7.926
	c-0.858,0.956-2.042,1.444-3.233,1.444c-1.027,0-2.059-0.364-2.886-1.103c-1.783-1.597-1.935-4.336-0.341-6.119l6.825-7.628
	c-11.518-9.343-23.114-18.578-34.837-27.627c-10.432-8.083-21.017-15.94-31.76-23.507c-2.657-1.949-5.408-3.707-8.125-5.537
	c-2.738-1.776-5.411-3.726-8.205-5.36l-8.33-5.04l-8.476-4.359l-0.41-0.211c-2.124-1.092-2.961-3.7-1.868-5.824
	c1.082-2.104,3.654-2.943,5.768-1.897l9.26,4.591l8.744,5.119c2.947,1.674,5.662,3.596,8.504,5.383
	c2.803,1.83,5.658,3.603,8.371,5.533c11.022,7.531,21.823,15.317,32.445,23.308c12.092,9.064,24.03,18.304,35.88,27.646l5.221-5.836
	c1.597-1.78,4.336-1.938,6.119-0.341s1.935,4.336,0.341,6.119l-4.874,5.447c6.707,5.327,13.394,10.675,20.05,16.06
	c16.439,13.323,32.741,26.804,48.981,40.354l9.009-8.616c1.726-1.656,4.468-1.597,6.127,0.135c1.653,1.729,1.594,4.474-0.135,6.127
	l-8.298,7.937c21.341,17.868,42.549,35.886,63.663,54.009c-0.101-0.746-0.171-1.502-0.171-2.276c0-9.377,7.63-17.004,17.007-17.004
	h56.608l0.214-6.582c-9.237-8.106-18.454-16.237-27.73-24.297c-9.499-8.224-19.03-16.411-28.58-24.572l-8.884,8.497
	c-0.841,0.804-1.918,1.202-2.996,1.202c-1.14,0-2.279-0.449-3.131-1.337c-1.653-1.729-1.594-4.474,0.135-6.127l8.241-7.882
	c-19.893-16.936-39.912-33.714-60.177-50.164l-7.663-6.215l-6.855,7.662c-0.858,0.956-2.042,1.444-3.233,1.444
	c-1.027,0-2.059-0.364-2.886-1.103c-1.783-1.597-1.935-4.336-0.341-6.119l6.547-7.317l-9.911-7.79
	c-8.116-6.485-16.394-12.716-24.688-18.927l-6.212-4.674l-6.326-4.473c-4.228-2.96-8.413-6.016-12.678-8.9l-12.959-8.3
	c-4.366-2.601-8.846-4.784-13.264-7.216l-0.421-0.232c-2.09-1.151-2.851-3.779-1.7-5.869c1.102-2.001,3.57-2.778,5.611-1.831
	c19.741,9.212,36.535,21.557,53.718,33.586c8.487,6.12,16.959,12.262,25.229,18.631l10.675,8.085l5.385-6.019
	c1.597-1.78,4.333-1.938,6.119-0.341c1.783,1.597,1.935,4.336,0.341,6.118l-4.978,5.564l7.284,5.693
	c21.015,16.442,41.753,33.204,62.353,50.124l8.507-8.137c1.729-1.656,4.465-1.594,6.127,0.135c1.653,1.729,1.594,4.474-0.135,6.127
	l-7.749,7.412c9.365,7.721,18.711,15.466,28.028,23.243c6.614,5.54,13.175,11.14,19.769,16.703l2.515-77.558h-5.829
	c-8.985,0-16.296-7.312-16.296-16.296v-4.401c0-8.985,7.312-16.296,16.296-16.296h6.07l-0.002-55.304
	c0-0.047,0.013-0.091,0.014-0.138h-8.073c-10.353,0-18.776-8.423-18.776-18.776v-2.423c0-10.353,8.423-18.776,18.776-18.776h7.393
	c-0.279-1.417-0.451-2.859-0.451-4.333c0-12.564,10.471-22.784,23.34-22.784c12.872,0,23.343,10.22,23.343,22.784
	c0,1.468-0.151,2.914-0.432,4.333h8.863c10.353,0,18.776,8.423,18.776,18.776v2.423c0,9.956-7.797,18.106-17.602,18.717
	l28.439,55.501h17.223c8.985,0,16.296,7.312,16.296,16.296v4.401c0,8.415-6.414,15.361-14.609,16.208l52.184,101.841h63.943
	c9.377,0,17.007,7.628,17.007,17.004c0,9.377-7.63,17.007-17.007,17.007h-9.419l20.715,90.455
	c97.282,1.783,156.96,30.126,189.98,53.758c29.817,21.341,43.737,42.398,48.139,50.019l167.513-18.109
	c8.48-0.917,17.033-1.994,25.303-3.032c16.796-2.113,34.161-4.296,52.438-5.371c1.379-0.082,2.722-0.172,4.025-0.26
	c15.622-1.055,29.103-1.952,37.493,19.893c4.756,12.378,4.324,25.755,3.552,37.323c-0.333,4.959-0.522,10.378-0.719,16.116
	c-1.013,29.193-2.274,65.529-24.409,85.005c-6.391,5.624-15.748,10.203-27.904,13.679c0.956,0.3,1.911,0.602,2.86,0.903
	c15.591,4.948,29.061,9.224,45.625,2.471c2.953-1.219,6.327,0.214,7.529,3.168C1150.776,872.065,1149.357,875.436,1146.403,876.641z
	 M721.438,639.601c-5.63,1.092-11.261,2.183-16.891,3.292c-10.257,2.011-20.669,3.907-30.737,5.74
	c-5.591,1.018-11.185,2.034-16.781,3.078c-14.305,2.556-28.821,5.007-42.861,7.377l-4.748,0.804
	c-16.514,2.787-33.047,5.453-49.577,8.119c-13.746,2.214-27.492,4.429-41.227,6.717c-4.817,0.802-10.229,1.43-15.949,2.083
	c16.503,14.814,32.991,29.646,49.421,44.566c0.156,0.141,0.269,0.309,0.413,0.458c18.635,0.777,38.796,1.375,61.441,1.824
	l4.245,0.054c14.77,0.183,30.045,0.372,45.047,0.415c5.738-0.025,11.518-0.028,17.298-0.031c10.485-0.006,21.326-0.011,31.947-0.161
	c5.718-0.085,11.442-0.155,17.168-0.223c10.697-0.13,21.399-0.26,32.079-0.496l43.481-1.027c0.034,0,0.068,0,0.104,0
	c0.673,0,1.303,0.169,1.874,0.444l39.482-4.268c-9.919-15.15-43.083-56.816-119.132-80.055c-0.282,0.122-0.578,0.22-0.893,0.281
	L721.438,639.601z M481.164,679.666c-15.06,2.557-29.712,6.836-38.088,15.949c-2.869,3.12-4.982,8.141-3.244,12.333
	c1.199,2.891,4.307,5.303,8.319,6.449c6.245,1.788,13.932,2.059,21.365,2.322c3.616,0.127,7.354,0.26,10.815,0.57
	c11.047,0.996,22.767,1.879,34.83,2.629c3.308,0.205,6.654,0.401,10.036,0.59C510.545,706.871,495.891,693.237,481.164,679.666z
	 M610.002,639.026l-7.913-15.442c-27.799,2.454-91.539,6.403-148.141,9.729c13.397,11.91,26.803,23.812,40.153,35.775
	c2.375-0.287,4.722-0.559,7.002-0.819c5.825-0.666,11.323-1.295,16.09-2.087c13.746-2.291,27.509-4.508,41.27-6.725
	c16.511-2.663,33.021-5.323,49.512-8.11l4.748-0.801c14.02-2.367,28.516-4.812,42.751-7.357c5.577-1.038,11.182-2.059,16.784-3.078
	c10.04-1.828,20.42-3.718,30.615-5.718c2.004-0.395,4.009-0.781,6.014-1.173c-26.516-6.423-57.56-10.61-93.817-11.067
	c-0.841,0.155-2.098,0.329-3.714,0.517l6.358,12.408c1.092,2.13,0.248,4.739-1.882,5.831c-0.632,0.324-1.306,0.477-1.972,0.477
	C612.286,641.384,610.769,640.524,610.002,639.026z M460.694,549.837h-28.75c0.016,0.137,0.047,0.269,0.05,0.409l1.452,64.808
	c0.063,0.055,0.126,0.11,0.188,0.166c3.726,3.301,7.427,6.627,11.15,9.931c19.507-1.141,39.959-2.359,59.639-3.565l-1.628-33.701
	C488.8,575.16,474.761,562.484,460.694,549.837z M501.678,564.758l-0.721-14.92h-16.425
	C490.247,554.811,495.974,559.771,501.678,564.758z M518.266,549.592c-0.004-0.081,0.034-0.152,0.035-0.232l-10.143-0.164
	l3.45,71.414l10.11-0.324L518.266,549.592z M560.335,523.095l9.262,18.076h23.086l-4.14-18.076H560.335z M525.505,549.837
	l1.83,37.444c9.222,8.113,18.458,16.209,27.656,24.35c1.956,1.731,2.929,4.136,2.944,6.558c16.217-1.078,30.074-2.062,39.92-2.869
	l-33.553-65.482H525.505z M594.624,549.651c-0.38,0.109-0.774,0.187-1.19,0.187h-19.397l33.129,64.653
	c0.824-0.082,1.576-0.161,2.253-0.237L594.624,549.651z M396.855,294.896c0.002,0.047,0.014,0.091,0.014,0.138v55.304h65.208
	l-28.409-55.442H396.855z M395.752,250.588c0,1.496,0.25,2.944,0.716,4.333h27.858c0.471-1.399,0.777-2.84,0.777-4.333
	c0-7.786-6.584-14.119-14.677-14.119C402.336,236.47,395.752,242.803,395.752,250.588z M393.886,472.017
	c6.726,5.693,13.482,11.352,20.189,17.066h119.096l-52.138-101.753h-84.401L393.886,472.017z M391.643,541.172h168.218
	l-9.262-18.076H392.23L391.643,541.172z M423.329,550.438c-0.004-0.205,0.024-0.403,0.047-0.601h-8.805
	c0.054,0.259,0.091,0.524,0.097,0.798l1.095,48.861c2.943,2.596,5.898,5.177,8.839,7.776L423.329,550.438z M390.474,577.248
	c5.489,4.815,10.966,9.643,16.445,14.468l-0.916-40.889c-0.008-0.341,0.034-0.67,0.102-0.99h-14.742L390.474,577.248z
	 M388.816,628.372c6.022-0.341,12.451-0.707,19.193-1.093c-0.194-0.475-0.315-0.989-0.328-1.534l-0.303-13.511
	c-5.834-5.297-11.681-10.578-17.526-15.863L388.816,628.372z M382.975,541.172l0.587-18.076h-30.673v11.877
	c1.594-1.664,4.221-1.811,5.972-0.277c1.803,1.577,1.986,4.313,0.409,6.113l-0.318,0.364H382.975z M359.099,549.837
	c7.652,6.661,15.313,13.313,22.946,19.996l0.649-19.996H359.099z M344.223,523.095H328.25c5.334,4.604,10.649,9.23,15.973,13.846
	V523.095z M380.131,628.863l1.301-40.115c-9.501-8.576-19.013-17.14-28.544-25.683v67.316
	C359.601,630.013,368.952,629.492,380.131,628.863z M238.292,751.424c-0.685,2.928,3.453,8.742,7.631,10.725
	c0.345,0.164,0.662,0.36,0.958,0.579c14.936-12.018,27.944-22.608,40.228-32.747c-9.062-4.772-19.93-5.979-29.778-3.138
	c-2.299,0.663-4.7-0.666-5.363-2.965c-0.663-2.299,0.666-4.702,2.965-5.362c13.13-3.773,27.7-1.657,39.276,5.59l0.738-0.611
	c1.854-1.538,3.727-3.097,5.597-4.653c-0.579-0.205-1.13-0.507-1.597-0.966c-13.608-13.377-34.494-19.549-53.174-15.741
	c-2.344,0.468-4.632-1.032-5.111-3.379c-0.48-2.344,1.035-4.632,3.379-5.112c8.748-1.784,17.751-1.704,26.427,0.006
	c-12.724-7.468-26.583-13.004-40.94-16.201c-13.191-2.937-24.296-3.303-33.955-1.109c-11.419,2.595-20.782,8.996-25.681,17.569
	c-5.185,9.066-4.632,20.829,1.315,27.966c3.032,3.642,7.907,6.048,13.041,6.44c4.522,0.367,8.587-0.88,11.498-3.456
	c1.848-1.63,4.53-1.91,6.666-0.7c2.147,1.21,3.286,3.65,2.841,6.073c-1.083,5.898,1.814,12.508,6.883,15.715
	c5.075,3.205,12.285,2.99,17.151-0.522c1.958-1.41,4.578-1.458,6.581-0.121C237.872,746.64,238.837,749.077,238.292,751.424z
	 M316.851,778.914c2.911-0.511,5.721-0.999,8.353-1.526c57.586-11.523,117.236-17.002,174.924-22.302
	c22.395-2.056,45.555-4.183,68.184-6.629l146.998-15.891c-0.901,0.013-1.803,0.022-2.704,0.035
	c-10.683,0.149-21.554,0.155-32.068,0.161c-5.772,0.003-11.537,0.006-17.295,0.031c-15.075-0.042-30.37-0.231-45.162-0.415
	l-4.279-0.054c-21.753-0.433-41.229-0.999-59.258-1.731c-0.373,1.169-0.977,2.283-1.855,3.251c-3.277,3.609-8.859,3.877-12.468,0.6
	c-0.019-0.017-0.038-0.035-0.056-0.052l-0.056-0.051c-1.657-1.548-3.331-3.082-4.99-4.629c-7.001-0.352-13.819-0.732-20.493-1.145
	c-12.144-0.756-23.944-1.645-35.072-2.646c-3.224-0.291-6.683-0.412-10.341-0.542c-7.955-0.282-16.178-0.57-23.444-2.649
	c-6.623-1.896-11.707-6.073-13.941-11.464c-2.815-6.787-0.905-15.233,4.869-21.515c8.74-9.508,22.265-14.421,36.495-17.391
	c-13.714-12.616-27.454-25.205-41.215-37.767c-15.986,0.925-30.835,1.77-43.44,2.481l-0.613,18.897
	c-0.076,2.344-2,4.192-4.327,4.192c-0.048,0-0.096,0-0.144-0.003c-2.392-0.076-4.268-2.079-4.189-4.471l0.588-18.127
	c-7.951,0.446-14.7,0.821-19.846,1.106c3.704,5.368,6.147,11.876,6.556,14.358c3.063,18.615-12.956,31.885-25.828,42.548
	c-2.798,2.319-5.441,4.508-7.69,6.587c-10.539,9.738-21.735,19.024-32.562,28.003l-1.145,0.951
	c-18.728,15.542-38.682,31.743-64.307,52.226c11.79,5.11,23.038,10.765,33.633,16.519
	C279.565,785.458,300.087,781.841,316.851,778.914z M278.475,801.844c211.779-2.458,596.109-11.178,858.864-41.82
	c0.161-4.477,0.331-8.807,0.601-12.834c0.714-10.643,1.131-22.9-2.993-33.634c-6.096-15.882-13.213-15.399-28.821-14.356
	c-1.329,0.09-2.694,0.181-4.099,0.262c-17.989,1.058-35.21,3.224-51.862,5.32c-8.31,1.044-16.9,2.124-25.456,3.049l-168.899,18.259
	c-0.893,0.415-1.851,0.489-2.748,0.297l-283.821,30.683c-22.697,2.454-45.893,4.584-68.322,6.643
	c-57.462,5.278-116.878,10.736-174.018,22.169c-2.697,0.542-5.577,1.044-8.559,1.566
	C303.952,789.962,287.984,792.78,278.475,801.844z M1115.734,842.387c10.913-9.6,16.04-24.7,18.612-40.982
	c-219.023,35.31-456.823,45.087-652.746,45.087c-52.251,0-101.45-0.698-146.593-1.787c4.69,4.011,9.287,8.114,13.735,12.36
	c0.186-0.018,0.367-0.056,0.559-0.056c15.831,0,24.609,3.264,33.095,6.417c7.876,2.928,15.315,5.695,29.069,5.695
	c13.622,0,20.282-2.81,27.334-5.786c7.8-3.292,15.868-6.694,31.825-6.694c15.961,0,24.026,3.402,31.828,6.694
	c7.052,2.976,13.715,5.786,27.337,5.786c13.625,0,20.288-2.81,27.343-5.786c7.803-3.292,15.87-6.694,31.834-6.694
	c15.961,0,24.028,3.402,31.828,6.694c7.052,2.976,13.715,5.786,27.337,5.786c13.625,0,20.288-2.81,27.34-5.786
	c7.803-3.292,15.87-6.694,31.831-6.694s24.028,3.402,31.831,6.694c7.052,2.976,13.715,5.786,27.34,5.786
	c13.628,0,20.291-2.81,27.346-5.786c7.803-3.292,15.87-6.694,31.834-6.694s24.034,3.402,31.837,6.694
	c7.055,2.976,13.718,5.786,27.346,5.786c13.625,0,20.288-2.81,27.343-5.786c7.803-3.292,15.873-6.694,31.837-6.694
	c15.963,0,24.034,3.402,31.837,6.694c7.055,2.976,13.718,5.786,27.346,5.786c13.631,0,20.296-2.81,27.351-5.786
	c7.805-3.292,15.876-6.694,31.845-6.694c5.071,0,9.876,0.587,14.511,1.49c0.551-0.473,1.214-0.827,1.977-0.977
	C1095.994,853.814,1108.394,848.847,1115.734,842.387z"/>
</svg>
