<?xml version="1.0" standalone="no"?>
<!DOCTYPE svg PUBLIC "-//W3C//DTD SVG 20010904//EN"
 "http://www.w3.org/TR/2001/REC-SVG-20010904/DTD/svg10.dtd">
<svg version="1.0" xmlns="http://www.w3.org/2000/svg"
 width="392.000000pt" height="600.000000pt" viewBox="0 0 392.000000 600.000000"
 preserveAspectRatio="xMidYMid meet">

<g transform="translate(0.000000,600.000000) scale(0.100000,-0.100000)"
fill="#000000" stroke="none">
<path d="M1333 5952 c4 -21 3 -31 -3 -27 -6 3 -10 1 -10 -4 0 -6 5 -11 10 -11
17 0 29 -43 16 -59 -8 -11 -8 -13 0 -8 7 4 15 0 18 -9 3 -8 2 -13 -2 -10 -5 3
-9 -1 -9 -8 0 -8 6 -12 12 -10 6 3 12 -2 12 -11 0 -10 -6 -14 -16 -10 -9 3 -5
-5 9 -17 24 -21 24 -21 3 -15 -29 7 -40 -9 -13 -18 25 -8 26 -25 3 -26 -15 0
-15 -2 2 -9 14 -6 16 -9 5 -10 -8 -1 0 -6 19 -12 24 -6 31 -12 22 -18 -11 -6
-11 -9 0 -13 8 -3 -2 -3 -21 0 -27 3 -31 2 -20 -6 8 -6 11 -11 5 -11 -5 0 -3
-5 5 -10 12 -8 12 -10 -5 -11 l-20 0 20 -10 c15 -7 8 -8 -25 -5 -31 4 -39 2
-25 -4 11 -5 31 -9 45 -10 24 -2 24 -3 -5 -11 -23 -6 -19 -7 20 -4 33 3 43 2
30 -4 -18 -8 -17 -9 10 -13 29 -5 29 -5 -5 -7 -60 -3 -72 -20 -15 -23 49 -1
49 -2 -15 -8 l-65 -7 60 -3 60 -3 -45 -7 -45 -7 50 -3 50 -3 -40 -7 -40 -7 40
-3 40 -3 -50 -7 -50 -7 45 -2 c51 -3 46 -6 -25 -17 l-50 -8 60 -12 60 -13 -75
4 c-50 3 -67 1 -50 -4 14 -5 50 -10 80 -11 103 -4 123 -17 30 -20 -48 -2 -72
-5 -55 -8 28 -6 27 -6 -15 -12 -36 -6 -24 -8 55 -10 l100 -4 -70 -6 -70 -6 75
-4 75 -3 -79 -8 c-101 -11 -112 -21 -15 -15 51 4 63 2 39 -3 -30 -7 -32 -9
-10 -11 21 -2 20 -4 -10 -10 l-35 -7 45 -2 c59 -3 43 -8 -52 -16 l-78 -7 -1
-36 c-1 -33 -2 -35 -9 -12 -8 25 -8 25 -10 -5 l-3 -30 -7 35 c-6 29 -8 24 -10
-35 l-3 -70 -7 88 c-10 130 -24 120 -17 -12 4 -63 5 -112 2 -109 -2 2 -10 40
-17 84 -11 77 -12 78 -20 40 -12 -56 -20 -59 -14 -6 l6 45 -13 -45 -13 -44
-18 67 c-17 63 -40 104 -31 55 3 -13 7 -36 10 -53 5 -29 4 -28 -9 5 -8 19 -15
27 -15 18 -1 -10 -6 -18 -12 -18 -6 0 -8 9 -4 23 4 15 4 18 -3 8 -5 -7 -15
-10 -21 -7 -6 4 -11 1 -11 -6 0 -7 -14 11 -30 40 -33 56 -45 68 -30 26 14 -36
13 -39 -10 -19 -14 13 -20 14 -20 5 0 -15 -29 19 -30 34 0 6 7 1 15 -10 8 -10
14 -14 14 -9 1 6 -8 21 -19 35 -12 14 -18 18 -14 8 5 -13 1 -16 -16 -13 -14 3
-20 0 -17 -8 3 -7 10 -11 16 -9 7 1 10 -2 6 -8 -3 -6 -12 -7 -18 -3 -7 4 -19
8 -27 8 -8 0 -19 3 -25 6 -5 4 -18 5 -27 4 -9 -2 -23 4 -30 13 -11 13 -11 14
1 7 10 -5 12 -4 7 4 -6 8 -11 9 -20 1 -10 -7 -20 -5 -39 10 -21 17 -26 17 -31
5 -3 -8 -1 -14 3 -12 8 2 11 -3 11 -19 0 -4 -7 -1 -15 6 -8 7 -13 16 -10 20 3
4 -3 14 -13 21 -15 13 -16 12 -3 -3 15 -21 2 -24 -19 -5 -8 6 -5 1 7 -13 21
-24 21 -26 3 -26 -10 0 -17 4 -14 7 2 4 -1 11 -8 15 -7 4 -10 4 -6 -1 4 -4 3
-16 -3 -26 -8 -15 -6 -19 6 -19 9 0 13 -4 10 -10 -6 -9 1 -11 49 -14 28 -1 28
-34 0 -52 -13 -9 -24 -21 -24 -26 0 -5 12 -1 28 10 15 11 43 27 62 37 l35 18
-19 -22 c-11 -11 -15 -21 -11 -21 4 0 0 -10 -11 -22 l-19 -21 28 18 c21 13 25
20 15 26 -7 5 -8 9 -3 10 6 0 18 2 29 4 14 3 11 -5 -15 -32 -35 -37 -24 -36
21 1 14 11 10 4 -9 -16 -33 -35 -33 -37 -10 -32 50 11 89 12 83 2 -4 -5 4 -4
17 2 35 19 35 19 -12 15 -40 -4 -42 -3 -25 11 23 16 40 19 31 4 -8 -13 1 -13
27 1 16 9 19 8 13 -2 -6 -9 -3 -11 8 -6 31 12 17 -2 -28 -29 -50 -29 -61 -43
-15 -19 40 21 50 19 20 -5 l-25 -19 40 9 c49 12 67 11 40 0 -29 -12 2 -12 44
0 58 16 46 3 -13 -16 -90 -28 -62 -44 32 -18 9 2 4 -2 -12 -9 -25 -13 -26 -15
-9 -19 11 -3 44 -4 74 -2 l54 4 -50 -14 c-27 -7 -41 -14 -31 -15 31 -2 13 -10
-45 -20 l-54 -10 70 4 c65 4 68 4 40 -9 -16 -7 -33 -11 -37 -9 -13 7 -10 -2
28 -84 55 -117 105 -235 101 -239 -1 -1 -40 72 -86 162 -45 91 -85 163 -88
161 -2 -3 3 -20 12 -38 20 -38 125 -290 125 -298 0 -4 -30 50 -65 119 -36 68
-72 131 -81 140 -8 8 10 -34 41 -93 32 -59 55 -110 53 -112 -2 -3 -21 28 -43
68 -40 75 -112 187 -121 187 -2 0 9 -24 26 -52 41 -71 101 -188 96 -188 -2 0
-31 44 -64 98 -60 97 -136 195 -111 142 11 -23 11 -24 -4 -11 -26 21 -20 1 19
-63 20 -33 29 -54 20 -47 -9 8 -16 10 -16 6 0 -4 -7 -2 -15 5 -8 7 -15 9 -15
5 0 -4 -7 -2 -15 5 -15 13 -21 2 -7 -16 4 -5 -5 4 -20 21 -15 16 -27 35 -28
40 0 6 9 -1 20 -15 12 -16 20 -20 20 -11 0 11 4 10 14 -4 13 -18 13 -17 14 8
0 15 -4 30 -9 33 -5 3 -6 -2 -3 -10 9 -23 -26 -13 -47 15 -16 20 -18 21 -13 4
4 -13 -7 -6 -30 20 -21 22 -32 30 -26 18 5 -12 15 -25 20 -28 6 -3 10 -11 10
-17 0 -6 -7 -5 -17 3 -15 11 -16 11 -5 -1 6 -8 12 -19 12 -25 -1 -5 -15 6 -32
25 -24 28 -28 30 -19 10 9 -19 3 -15 -25 15 -52 56 -27 10 49 -90 l60 -80 -99
95 c-58 55 -76 70 -44 35 80 -87 117 -131 99 -117 -9 6 -18 10 -21 7 -2 -3
-20 12 -39 32 -19 21 -25 31 -14 23 11 -8 -2 9 -30 38 -27 29 -51 52 -54 52
-3 0 10 -16 29 -35 45 -47 27 -45 -25 2 -22 21 -4 0 40 -46 l80 -84 -65 56
c-75 66 -114 78 -55 17 43 -44 61 -89 21 -51 -22 21 -42 29 -32 13 3 -5 -1 -9
-9 -9 -11 0 -12 4 -4 14 6 7 8 13 3 13 -5 0 -4 4 2 8 7 4 0 16 -20 32 -28 21
-29 22 -12 2 11 -12 16 -22 11 -22 -4 0 -3 -6 3 -13 8 -10 6 -16 -10 -26 -11
-7 -17 -8 -13 -2 3 6 2 11 -4 11 -5 0 -13 -5 -16 -10 -4 -6 -11 -7 -17 -4 -6
4 -14 1 -18 -6 -6 -9 -15 -8 -38 4 -27 14 -31 14 -26 1 4 -8 11 -15 18 -15 6
0 3 -5 -7 -11 -12 -7 -22 -7 -35 1 -14 9 -13 10 8 4 14 -3 22 -3 17 1 -4 5
-22 9 -40 10 -17 1 -41 5 -52 9 -16 6 -17 6 -5 -3 13 -9 13 -11 0 -11 -9 -1
-5 -6 10 -15 15 -9 19 -14 10 -15 -13 0 -13 -1 0 -10 8 -5 20 -10 25 -10 6 0
3 5 -5 10 -8 5 -10 10 -5 10 6 0 17 -5 25 -10 13 -9 13 -10 0 -10 -13 0 -13
-1 0 -10 22 -15 9 -12 -55 10 -66 23 -84 25 -40 5 24 -11 26 -14 10 -15 -16
-1 -14 -4 10 -16 l30 -14 -28 5 c-19 4 -26 2 -22 -5 4 -6 -5 -10 -22 -10 -21
0 -24 -3 -14 -9 11 -7 6 -12 -20 -19 -24 -7 -28 -10 -12 -11 36 -2 37 -21 1
-22 -18 -1 -25 -3 -16 -6 15 -4 16 -8 7 -26 -11 -21 -11 -21 7 -6 10 9 30 22
43 29 26 13 25 11 -12 -45 l-21 -30 29 25 c25 22 27 23 22 5 -7 -18 -6 -19 6
-3 8 10 16 15 19 12 3 -3 22 14 43 38 39 45 40 44 20 -29 -3 -10 4 0 15 22 20
37 21 38 16 10 -5 -27 -3 -26 14 10 15 32 20 35 20 17 0 -12 -7 -39 -15 -59
-24 -57 -9 -51 25 11 18 31 34 56 36 56 5 0 -12 -42 -31 -80 -31 -60 -4 -28
40 47 53 90 56 89 15 -8 -16 -38 -27 -69 -25 -69 2 0 22 34 45 75 23 41 43 75
45 75 6 0 -27 -94 -36 -105 -5 -5 -9 -18 -8 -30 0 -14 6 -8 19 20 10 22 33 56
50 75 l31 35 -31 -63 c-17 -35 -26 -61 -19 -56 9 5 10 2 5 -12 -4 -11 7 -4 24
16 25 29 29 30 20 10 -11 -24 -11 -24 5 -5 9 11 19 25 23 31 4 5 25 23 47 40
l40 29 -29 -40 c-16 -22 -45 -60 -64 -85 l-34 -45 38 40 c22 22 59 63 82 90
65 74 34 23 -48 -80 l-71 -90 98 100 c100 102 103 103 24 5 l-45 -55 40 38
c22 20 43 35 45 32 3 -2 21 12 40 33 28 31 29 33 5 12 l-29 -25 19 27 c10 15
24 26 29 24 6 -2 21 6 34 18 44 39 17 -2 -63 -96 l-79 -93 94 90 c103 99 102
97 -26 -55 l-88 -105 108 105 c60 58 104 98 99 90 -6 -8 -37 -49 -68 -90 -58
-76 -35 -55 61 55 29 33 50 51 46 40 -6 -18 -5 -19 12 -5 17 14 18 14 6 -9
-10 -17 -15 -20 -21 -11 -6 9 -11 6 -21 -11 -11 -22 -11 -23 4 -10 10 7 17 10
17 6 0 -9 -126 -192 -153 -223 l-21 -22 25 -17 c13 -10 40 -32 59 -51 l35 -33
-70 37 c-38 20 -90 54 -115 74 -61 49 -80 59 -50 25 24 -27 24 -27 3 -16 -37
19 -26 6 20 -24 39 -25 116 -102 117 -116 0 -4 -37 18 -83 48 -80 54 -152 94
-132 76 6 -5 40 -33 76 -61 98 -77 102 -86 19 -52 -93 38 -113 39 -35 1 33
-16 58 -30 55 -30 -3 -1 -34 8 -70 19 -84 26 -100 25 -30 -2 60 -22 87 -40 49
-32 -20 5 -21 4 -9 -6 13 -10 13 -11 -2 -7 -9 3 -34 8 -55 12 -30 4 -34 3 -18
-5 15 -8 10 -9 -25 -5 l-45 4 45 -14 45 -14 -80 4 -80 4 60 -13 60 -14 -65 4
-65 4 50 -14 50 -14 -65 4 c-48 2 -57 1 -35 -5 l30 -9 -30 -2 -30 -2 33 -8
c51 -12 50 -20 -4 -21 -43 -1 -45 -2 -19 -9 l30 -8 -30 -1 c-23 -1 -27 -3 -15
-11 13 -9 13 -10 0 -11 -8 -1 -21 -1 -29 0 -7 2 -10 -2 -6 -9 5 -9 1 -10 -16
-5 -22 7 -23 7 -9 -10 14 -17 14 -18 -10 -5 -23 12 -24 12 -11 -4 14 -16 12
-17 -25 -12 -37 5 -37 5 -12 -6 16 -7 28 -15 28 -20 0 -7 -30 -12 -56 -9 -7 1
-15 -6 -18 -15 -5 -12 -2 -15 9 -10 9 3 13 2 10 -4 -3 -6 -16 -10 -28 -11 -14
0 -17 -3 -8 -6 10 -4 5 -10 -15 -19 -16 -7 -22 -13 -14 -14 8 -1 -1 -8 -20
-15 -30 -12 -32 -14 -11 -14 23 -1 24 -2 6 -14 -16 -13 -15 -14 16 -12 19 1
42 -2 52 -7 16 -8 17 -7 8 10 -7 14 -7 19 4 19 8 0 12 -3 10 -7 -2 -4 2 -7 10
-7 8 0 12 4 9 9 -3 4 0 8 6 8 6 0 9 4 6 9 -4 5 4 7 16 3 17 -4 20 -2 15 12 -4
10 -3 15 3 11 6 -3 10 -14 11 -23 0 -12 3 -11 9 6 10 24 26 29 33 10 3 -8 6
-7 6 4 1 27 20 31 30 6 8 -18 10 -19 10 -5 1 10 -4 28 -10 40 -9 18 -9 20 1
10 11 -10 16 -9 26 5 12 15 13 12 7 -17 -4 -25 -3 -32 5 -27 7 4 13 19 13 34
l2 27 5 -25 c4 -23 6 -21 17 15 l11 40 8 -32 c11 -46 32 -50 29 -4 l-3 36 13
-35 14 -34 -76 -62 c-66 -53 -228 -221 -193 -200 7 4 12 2 12 -4 0 -6 5 -8 10
-5 6 3 10 0 10 -7 0 -7 13 10 29 37 28 49 71 97 71 79 0 -5 -9 -20 -20 -34
-11 -14 -20 -29 -20 -35 0 -5 10 5 22 23 13 22 23 29 28 22 5 -8 9 -7 14 5 9
25 7 32 -5 15 -9 -13 -10 -13 -6 0 2 8 10 14 16 12 6 -1 11 3 11 10 0 6 2 9 5
7 2 -3 -2 -27 -10 -54 -24 -77 -16 -77 10 0 23 66 24 67 20 25 l-5 -45 20 55
c11 30 18 44 15 30 -2 -14 -6 -45 -9 -70 l-6 -45 19 55 c14 42 20 49 21 30 2
-18 6 -12 14 22 6 25 15 50 20 55 5 5 7 1 3 -8 -3 -9 -8 -54 -11 -100 l-5 -84
13 80 c11 66 14 73 16 40 2 -33 5 -25 15 40 l12 80 2 -70 c1 -38 5 -88 10
-110 l7 -40 8 60 c4 33 11 83 16 110 l7 50 3 -40 3 -40 6 35 7 35 7 -37 c11
-55 37 -40 37 21 0 74 16 79 18 4 3 -89 12 -94 13 -7 1 105 17 127 18 25 1
-81 19 -217 27 -208 3 2 0 56 -6 118 -7 71 -8 129 -2 154 l9 40 6 -45 c4 -25
11 -76 16 -115 10 -68 10 -68 7 35 -2 60 0 94 4 80 4 -14 8 -45 9 -70 1 -51
17 -117 31 -125 5 -3 5 7 -1 24 -6 16 -9 44 -7 63 l3 33 27 -50 c35 -65 35
-53 -2 63 -37 115 -34 141 5 49 15 -37 30 -66 32 -64 1 2 -6 30 -17 63 -23 66
-13 62 15 -6 21 -50 107 -201 112 -197 2 2 -10 28 -27 58 -30 57 -80 181 -80
201 0 6 24 -38 54 -98 30 -60 61 -118 70 -129 16 -20 14 -13 -35 114 -5 13 -8
26 -6 28 3 2 15 -21 27 -52 12 -31 24 -54 26 -52 2 2 -10 38 -27 81 -40 104
-32 108 10 5 42 -103 50 -98 10 6 -47 123 -29 108 25 -20 26 -64 50 -114 52
-112 3 3 -13 50 -36 106 -22 56 -40 107 -39 114 0 6 7 -5 16 -25 8 -21 19 -36
23 -33 5 3 6 -5 3 -17 -3 -17 -2 -19 5 -10 7 11 10 11 15 -3 4 -9 3 -13 -3
-10 -15 9 -13 4 21 -69 32 -69 59 -102 34 -42 -22 52 -18 56 10 11 34 -55 31
-36 -5 37 -16 33 -30 65 -29 72 0 6 7 -3 15 -21 7 -17 19 -35 25 -38 8 -5 8
-1 -1 14 -12 23 -43 201 -36 208 3 4 31 -106 39 -157 3 -16 5 -11 6 14 1 53 7
44 25 -42 8 -39 20 -80 26 -89 8 -15 9 -12 4 12 -4 23 -3 26 5 15 8 -12 11 -7
11 20 0 22 -3 30 -8 22 -6 -9 -12 -1 -19 25 -13 43 -28 183 -20 183 3 0 11
-42 18 -92 15 -108 26 -93 28 37 1 78 1 79 18 55 10 -14 23 -54 29 -90 9 -49
12 -56 13 -30 l2 35 14 -25 c8 -14 14 -33 15 -42 0 -20 40 -21 40 -1 0 15 16
17 24 4 7 -11 -28 -43 -37 -34 -4 3 -7 0 -8 -8 0 -14 -81 -79 -98 -79 -5 0
-11 -8 -13 -18 -3 -10 -23 -24 -47 -32 -23 -7 -44 -17 -47 -21 -3 -5 14 -2 37
6 52 19 87 18 39 0 -19 -7 -29 -14 -22 -14 7 -1 11 -5 8 -10 -3 -4 6 -6 20 -3
20 4 23 7 12 14 -10 7 -8 8 5 4 10 -3 26 -6 35 -7 9 0 1 -7 -18 -15 -34 -14
-34 -14 -5 -9 23 4 19 -1 -20 -19 -27 -13 -59 -31 -70 -40 -19 -15 -19 -16 8
-6 43 15 46 11 7 -10 -41 -23 -36 -26 11 -6 77 31 79 24 4 -14 -49 -24 -68
-38 -50 -35 l30 6 -32 -22 c-39 -25 -42 -33 -10 -24 20 5 20 5 -3 -9 -32 -20
-23 -20 30 -1 58 21 62 12 5 -10 -26 -9 -44 -19 -41 -22 3 -3 23 2 46 11 59
23 59 20 4 -20 -27 -20 -41 -34 -31 -30 25 9 43 13 34 9 -4 -3 -5 -9 -1 -14 3
-5 -1 -9 -9 -9 -8 0 -30 -7 -48 -16 -26 -11 -28 -14 -9 -10 22 4 23 4 8 -8
-10 -7 -18 -18 -18 -24 0 -5 -7 -13 -16 -16 -8 -3 -12 -10 -9 -16 3 -5 0 -10
-7 -10 -10 0 -10 -2 0 -8 8 -6 1 -14 -25 -26 -25 -12 -33 -20 -24 -25 9 -6 6
-10 -11 -15 -14 -5 -18 -9 -10 -13 6 -2 9 -10 5 -16 -4 -6 0 -8 11 -4 14 6 15
4 5 -16 -8 -14 3 -9 30 18 22 21 41 35 41 31 0 -5 7 -3 16 4 8 8 14 9 13 4 -4
-25 4 -36 11 -14 7 23 8 22 9 -11 1 -35 2 -36 58 -49 55 -12 56 -13 32 -26
l-24 -13 25 -2 c19 -1 17 -3 -10 -8 -32 -6 -29 -7 40 -21 73 -14 74 -14 35
-20 -39 -6 -40 -6 -10 -12 24 -5 21 -6 -12 -4 -23 1 -39 -2 -37 -6 3 -5 0 -8
-6 -8 -6 0 -9 -4 -5 -9 3 -6 -10 -8 -32 -6 -34 4 -33 3 17 -15 52 -19 37 -21
-36 -5 -19 5 -3 -10 48 -41 42 -27 75 -50 73 -52 -1 -2 -35 13 -75 33 -92 46
-81 28 18 -31 84 -50 69 -49 -50 2 -43 18 -78 31 -78 28 0 -2 41 -25 92 -49
50 -25 87 -45 81 -45 -12 0 -102 31 -158 55 -68 29 -25 -1 70 -49 102 -52 105
-57 9 -21 -37 14 -69 24 -71 21 -5 -4 99 -54 132 -62 14 -3 28 -10 30 -15 6
-8 -27 1 -140 39 l-60 21 35 -30 c19 -16 58 -43 85 -60 61 -37 25 -29 -67 15
-82 39 -64 13 23 -34 67 -36 75 -54 9 -20 -23 12 -39 17 -35 11 3 -6 20 -18
37 -27 50 -26 24 -27 -34 -1 -46 21 -72 45 -170 159 -192 222 -285 297 -448
361 -86 33 -212 68 -205 56 4 -5 0 -9 -7 -9 -7 0 -3 -7 9 -15 12 -8 30 -14 40
-13 41 3 62 -3 97 -31 l36 -29 -27 -11 c-26 -10 -25 -10 12 -6 l40 5 -44 -15
c-77 -26 -58 -33 23 -8 12 3 16 1 12 -6 -5 -7 4 -9 26 -6 22 4 27 3 15 -3 -10
-4 -17 -11 -15 -16 2 -4 -8 -14 -22 -21 -34 -19 -16 -19 20 0 38 19 80 36 80
31 0 -2 -24 -17 -53 -34 -28 -16 -63 -39 -77 -51 l-25 -21 38 21 c20 11 37 18
37 15 0 -3 18 1 40 9 27 10 38 11 34 3 -5 -7 -2 -9 8 -6 8 4 15 1 15 -7 0 -7
-6 -11 -13 -8 -6 2 -15 0 -18 -6 -12 -18 13 -22 50 -6 53 22 55 18 7 -11 -53
-31 -56 -41 -5 -15 64 32 90 34 33 2 -50 -29 -161 -109 -161 -117 0 -2 38 21
84 52 85 54 163 94 152 75 -3 -5 -37 -30 -75 -55 -38 -25 -73 -51 -77 -57 -4
-6 6 -3 22 8 79 54 148 95 136 81 -7 -9 -39 -33 -71 -53 -31 -20 -63 -46 -70
-58 l-14 -22 24 21 c27 24 69 48 69 39 0 -4 -12 -23 -27 -43 -19 -26 -6 -17
44 31 39 37 74 67 78 67 3 0 -11 -21 -31 -47 l-38 -48 44 40 44 40 -35 -45
c-50 -63 -109 -153 -109 -165 0 -5 15 13 34 40 18 28 55 73 81 100 31 33 39
38 21 15 -14 -19 -44 -62 -65 -95 -22 -33 -49 -71 -60 -85 l-19 -25 -24 20
c-38 34 -62 51 -55 38 4 -6 3 -14 -3 -18 -6 -3 -13 1 -16 9 -3 9 -11 16 -17
16 -6 0 -20 8 -31 17 -15 13 -14 10 3 -10 34 -38 14 -34 -28 6 -18 17 -30 25
-26 17 5 -8 -8 0 -28 18 -42 36 -48 37 -65 20 -7 -7 -12 -8 -12 -3 0 4 -9 0
-19 -9 -12 -11 -17 -25 -13 -39 5 -19 3 -20 -9 -10 -13 11 -15 8 -12 -20 4
-30 3 -31 -11 -13 -15 18 -21 13 -18 -16 1 -3 -5 -9 -14 -12 -12 -4 -12 -2 -4
14 11 21 1 27 -16 11 -5 -5 -24 -12 -42 -14 -19 -3 -42 -13 -51 -21 -10 -9
-37 -17 -62 -17 -24 -1 -34 -4 -22 -6 27 -5 30 -20 5 -26 -12 -3 -11 -5 6 -6
13 0 20 -6 17 -11 -5 -9 3 -12 25 -12 3 0 15 3 28 7 21 6 22 5 11 -13 -7 -12
-17 -18 -23 -15 -5 3 -6 1 -2 -5 4 -7 21 -1 49 18 28 19 47 26 57 20 10 -6 22
-3 35 8 20 17 20 17 1 -5 -18 -22 -35 -26 -47 -10 -3 5 -14 -4 -24 -20 -17
-26 -17 -27 -1 -13 18 14 46 23 46 13 0 -2 -12 -21 -26 -41 l-26 -37 31 35
c18 19 36 35 40 35 5 0 13 4 18 9 5 6 2 6 -7 1 -13 -8 -13 -7 -1 9 8 9 24 22
35 27 20 10 20 9 -1 -9 -12 -11 -20 -22 -17 -25 3 -3 -2 -18 -11 -34 l-17 -28
19 25 c33 45 76 91 80 86 2 -2 -7 -27 -21 -55 -28 -53 -36 -96 -10 -47 12 21
21 27 39 23 18 -3 35 6 66 34 41 37 79 47 79 21 0 -7 -9 -30 -20 -52 -11 -22
-20 -45 -20 -52 1 -7 7 1 15 17 13 30 13 29 16 -30 2 -54 2 -56 8 -21 10 63
27 54 39 -21 l10 -68 -4 90 c-3 66 0 97 10 115 13 23 14 16 11 -75 l-4 -100
12 85 12 85 6 -90 c3 -49 6 -74 7 -54 1 20 9 50 17 65 l15 29 1 -30 2 -30 8
35 c5 25 7 13 4 -40 -4 -75 -4 -75 6 -20 15 86 19 83 14 -10 -3 -55 -1 -76 4
-60 5 14 10 21 10 15 1 -5 6 -3 11 5 5 8 7 26 4 40 -4 20 -3 22 5 10 9 -13 11
-12 12 5 1 11 1 30 0 43 -1 12 3 30 8 40 8 13 9 9 5 -18 -5 -28 -3 -32 6 -20
9 12 10 10 6 -13 -5 -19 -3 -26 6 -25 9 2 14 -15 16 -55 l3 -58 -47 -20 c-28
-13 -74 -22 -116 -24 -45 -3 -76 -9 -87 -19 -10 -9 -35 -17 -57 -18 l-39 -1
45 -7 c38 -6 41 -7 15 -10 -16 -2 -34 -4 -40 -5 -5 -2 -23 -3 -38 -4 -16 -1
-26 -5 -22 -11 3 -5 -4 -11 -17 -12 -13 -1 -39 -3 -58 -4 -91 -7 -149 -36
-137 -67 4 -9 6 -9 6 1 1 6 6 12 11 12 7 0 7 -6 0 -19 -7 -14 -6 -21 3 -25 9
-5 9 -8 -2 -12 -11 -5 -8 -11 10 -25 l24 -19 -45 4 c-25 2 -37 2 -28 -1 21 -5
14 -27 -24 -71 -15 -18 -28 -41 -28 -51 0 -10 -11 -23 -24 -30 -13 -7 -34 -27
-47 -45 l-22 -31 24 20 c53 45 62 47 24 5 -22 -25 -31 -37 -19 -27 11 9 24 14
29 10 4 -5 6 -3 3 2 -3 6 5 18 18 28 23 18 24 17 24 -3 0 -19 4 -17 34 15 33
35 35 35 39 13 3 -19 5 -18 6 7 1 17 6 37 11 45 8 12 10 8 11 -15 1 -25 3 -21
14 20 7 28 13 41 14 30 1 -11 8 -29 16 -39 14 -19 15 -17 15 20 0 21 5 46 11
54 8 11 9 6 4 -20 -4 -24 -3 -31 4 -21 7 12 10 10 14 -10 2 -13 2 -4 0 21 -4
52 11 87 20 48 10 -39 38 -101 43 -95 3 2 -1 17 -8 31 -10 23 -9 29 2 36 9 6
17 5 21 -2 8 -13 15 8 24 75 8 61 25 61 26 0 1 -27 5 -59 9 -73 5 -15 6 5 3
50 -2 41 -7 81 -9 89 -3 11 1 9 16 -4 14 -13 20 -31 20 -61 0 -66 14 -89 20
-32 l5 48 49 -50 c49 -49 49 -50 25 -59 -40 -16 -16 -12 116 19 70 17 129 29
131 27 2 -2 -33 -14 -79 -27 -74 -21 -157 -55 -157 -64 0 -2 29 7 65 20 98 36
102 29 6 -10 -105 -43 -130 -65 -30 -27 73 28 139 47 129 38 -3 -3 -41 -20
-85 -38 -44 -18 -97 -43 -118 -55 -35 -19 -37 -23 -19 -28 11 -4 37 0 58 9 20
8 39 13 41 11 3 -2 -5 -7 -17 -11 -20 -6 -21 -7 -3 -21 17 -13 17 -14 -1 -7
-15 5 -17 3 -11 -7 6 -10 4 -12 -8 -7 -12 4 -15 1 -12 -14 3 -15 0 -19 -11
-15 -8 3 -12 2 -9 -3 3 -5 -3 -12 -14 -16 -11 -3 -25 -13 -33 -22 -12 -14 -9
-14 20 1 18 9 38 14 44 10 7 -5 8 -3 3 6 -5 8 -3 11 5 8 31 -10 17 -38 -31
-64 -27 -15 -47 -29 -45 -32 3 -2 40 14 82 37 42 23 71 34 63 25 -8 -9 -12
-19 -11 -21 2 -3 0 -8 -4 -11 -4 -4 -4 -1 1 7 5 9 3 12 -6 9 -21 -7 -17 -43 5
-41 10 0 14 -2 10 -6 -5 -4 -33 -27 -62 -50 -57 -47 -73 -78 -18 -36 19 14 36
22 38 18 4 -8 3 -50 -2 -55 -7 -10 -7 -44 0 -53 6 -7 1 -24 -12 -46 l-20 -34
28 25 c16 14 23 18 17 10 -6 -8 -10 -26 -9 -40 1 -19 6 -25 23 -24 19 1 21 -2
12 -18 -10 -19 -3 -42 10 -33 5 2 8 -14 7 -38 -1 -29 3 -41 12 -40 6 2 12 -3
12 -10 0 -8 4 -7 11 3 8 12 9 8 5 -15 -3 -16 -3 -25 0 -18 3 7 13 9 21 6 17
-6 16 -6 -2 40 -3 8 2 13 14 13 10 0 17 -6 14 -12 -2 -7 0 -15 5 -18 5 -3 10
5 9 19 0 13 -6 26 -14 29 -9 4 -12 1 -7 -7 4 -6 3 -8 -1 -4 -16 14 -15 39 1
33 11 -4 10 0 -3 19 -10 13 -21 25 -25 25 -5 0 -8 5 -8 10 0 6 12 4 29 -5 26
-13 29 -13 27 1 -1 9 -13 25 -27 35 -33 25 -12 24 31 -2 l35 -21 -40 43 c-26
28 -31 37 -15 26 59 -40 62 -36 10 12 -55 52 -52 58 6 14 51 -38 49 -26 -3 18
-26 23 -52 46 -58 51 -13 14 33 -10 68 -35 16 -10 31 -17 33 -14 3 3 -3 10
-14 16 -10 5 -32 27 -47 48 -26 35 -27 36 -4 15 30 -26 47 -29 28 -4 -13 15
-12 16 3 3 10 -7 16 -17 13 -21 -3 -4 2 -13 10 -20 11 -9 15 -9 15 -1 0 7 5 9
12 5 7 -4 8 -3 4 5 -4 6 -13 8 -19 5 -7 -4 -9 -4 -5 1 4 4 2 15 -5 24 -9 12
-5 11 18 -3 l30 -19 -35 39 c-35 39 -60 77 -60 91 0 5 23 -17 51 -47 l51 -55
-47 65 -46 65 56 -60 c31 -33 52 -50 46 -38 -6 12 -16 25 -21 28 -6 3 -10 11
-10 17 0 6 7 5 17 -3 11 -9 10 -3 -6 18 -12 18 -19 38 -16 43 4 6 1 9 -6 8 -6
-2 -14 3 -17 11 -3 9 0 11 8 6 9 -5 11 -4 6 4 -4 6 -11 9 -16 6 -10 -6 -35 23
-27 32 4 3 2 15 -4 27 -11 22 17 -6 79 -80 31 -37 31 -36 -6 21 -75 117 -67
111 36 -23 35 -45 65 -82 68 -82 2 0 -22 39 -54 88 -75 111 -78 117 -64 108
18 -11 14 5 -5 28 -13 15 -9 14 11 -4 29 -24 28 -15 -2 25 -8 11 36 -32 97
-95 61 -63 111 -110 111 -103 0 6 -4 14 -9 17 -4 3 -50 52 -102 108 -61 68
-75 86 -38 53 92 -86 120 -106 74 -55 -22 25 -54 61 -70 79 -29 34 -28 34 21
-7 28 -23 57 -48 64 -57 7 -9 27 -25 44 -37 17 -12 -9 20 -59 71 -49 50 -87
91 -83 91 4 0 42 -27 85 -60 l78 -61 -70 67 c-38 36 -56 57 -39 46 17 -12 37
-28 44 -37 15 -18 34 -20 24 -2 -5 8 -2 8 9 -2 20 -16 23 -25 5 -15 -7 4 2 -9
21 -29 19 -20 38 -34 43 -31 5 3 27 -11 49 -31 30 -27 48 -36 65 -32 20 3 22
2 13 -14 -13 -25 -36 -24 -51 1 -15 24 -24 25 -32 4 -3 -8 -2 -13 3 -10 4 3
18 -5 31 -19 27 -29 45 -23 71 24 14 26 18 29 13 11 -9 -35 -32 -70 -47 -70
-7 0 -23 7 -36 16 -22 16 -23 16 -12 -3 5 -11 7 -24 3 -28 -4 -3 -2 -6 3 -5
31 7 57 -1 51 -15 -19 -48 -13 -42 19 17 19 38 37 68 39 68 7 0 -10 -53 -28
-88 -9 -17 -16 -34 -16 -37 0 -12 25 20 38 49 19 43 23 27 7 -28 -8 -27 -12
-60 -8 -75 l6 -26 13 35 13 35 -4 -40 c-4 -30 -3 -35 4 -20 9 17 10 16 9 -10
-1 -16 -1 -43 1 -60 2 -26 3 -28 11 -10 6 14 9 2 11 -45 l2 -65 6 55 c5 45 7
50 13 30 4 -14 8 -35 8 -48 0 -13 4 -21 9 -17 5 3 13 -4 16 -16 7 -21 7 -21
23 3 9 12 20 26 25 29 5 3 1 9 -9 13 -14 5 -15 9 -6 15 10 6 7 14 -8 34 -12
15 -17 27 -12 27 6 0 9 8 7 17 -2 10 -4 18 -6 18 -1 0 -3 9 -5 20 -7 48 -11
58 -25 69 -17 13 -23 36 -9 36 17 0 11 22 -12 49 -14 16 -8 13 13 -6 48 -45
61 -42 18 4 l-34 37 38 -32 c39 -33 58 -42 38 -19 -6 8 -8 16 -5 20 3 3 -2 17
-11 31 -17 25 -17 26 1 19 21 -7 18 -2 -51 77 l-30 35 33 -29 c39 -36 42 -24
5 18 -26 29 -26 30 -2 8 14 -12 29 -19 34 -15 4 5 5 3 2 -3 -4 -7 0 -17 8 -24
30 -25 4 23 -33 62 -20 21 -32 38 -28 38 5 0 3 7 -4 15 -11 13 -10 14 5 9 14
-6 16 -4 10 7 -8 12 -6 12 8 0 9 -7 15 -17 12 -21 -3 -4 2 -13 11 -20 11 -10
18 -10 26 -2 8 8 15 7 24 -6 10 -14 9 -21 -4 -37 -16 -19 -16 -19 1 -5 16 12
20 12 28 -1 5 -8 7 -19 4 -26 -2 -7 1 -10 8 -7 17 6 70 -92 65 -121 -7 -32 8
-56 21 -35 14 21 19 12 30 -60 l10 -65 -4 64 c-2 41 0 59 6 50 5 -8 9 -23 9
-33 0 -18 1 -18 12 -4 11 14 43 -12 245 -206 211 -203 272 -258 473 -424 101
-84 314 -314 383 -414 34 -50 81 -118 105 -152 23 -33 61 -96 83 -139 l41 -78
-94 2 c-51 1 -128 -4 -170 -12 -63 -10 -111 -11 -254 -1 -97 7 -180 10 -185 7
-5 -3 -58 -7 -119 -8 -72 -2 -114 -7 -122 -15 -18 -18 6 -32 54 -32 20 0 48
-4 62 -9 16 -7 36 -6 58 0 18 6 89 10 158 10 100 -1 132 -5 160 -20 32 -16 39
-17 75 -3 22 8 68 14 103 13 34 -1 74 -2 90 -3 15 0 69 2 120 4 70 4 92 2 92
-8 0 -24 -187 -37 -292 -19 -29 4 -48 4 -48 -2 0 -5 34 -15 76 -22 64 -11 73
-15 63 -27 -19 -23 -5 -27 53 -15 53 11 187 4 568 -30 73 -6 167 -8 225 -4 55
4 129 7 164 6 64 -1 101 15 101 43 0 24 -84 46 -175 46 -63 0 -97 4 -111 15
-12 8 -39 19 -60 24 -22 5 -52 14 -69 20 -16 5 -60 17 -98 27 -61 15 -69 20
-92 58 -14 22 -50 104 -82 181 -58 142 -202 433 -332 670 -39 72 -155 295
-256 496 -102 202 -230 449 -285 550 -147 267 -271 524 -329 681 -28 75 -53
149 -55 163 -3 15 -7 30 -10 33 -3 3 2 11 12 19 16 13 16 14 0 9 -12 -4 -15
-1 -11 11 4 10 2 14 -4 10 -16 -10 -7 40 13 71 17 26 17 27 -1 12 -17 -14 -18
-13 -12 2 5 15 2 16 -18 8 -22 -9 -25 -6 -39 43 -39 138 -167 716 -166 751 1
6 9 -5 20 -24 21 -38 26 -36 10 4 -6 16 -6 26 0 26 5 0 -2 11 -15 25 -14 13
-25 30 -25 37 0 16 50 -33 54 -53 2 -8 11 -30 20 -49 10 -21 15 -26 12 -12 -4
20 -1 22 17 15 12 -4 32 -7 44 -6 13 0 20 -3 17 -8 -3 -5 2 -6 11 -2 12 4 14
8 4 13 -7 5 -1 7 14 7 l27 -2 -23 -17 c-12 -9 -39 -25 -59 -34 -21 -9 -38 -21
-38 -26 0 -4 23 3 50 17 27 14 50 24 50 22 0 -2 -21 -18 -46 -36 -54 -39 -52
-53 3 -19 21 14 44 28 52 33 8 5 2 -9 -14 -31 l-29 -39 50 46 c53 50 114 94
114 84 0 -4 -21 -31 -46 -60 -29 -35 -60 -59 -87 -69 -29 -11 -32 -14 -12 -10
l29 5 -19 -22 c-11 -12 8 -1 42 25 34 27 66 45 71 42 5 -3 16 2 23 12 13 16
12 16 -6 2 -11 -8 -7 0 9 18 17 18 34 32 39 32 5 0 -1 -9 -14 -20 -13 -10 -19
-19 -12 -20 6 0 15 5 18 10 3 6 12 10 18 10 7 0 -3 -14 -21 -31 -18 -16 -30
-34 -27 -39 3 -5 0 -12 -6 -16 -8 -4 -9 -3 -5 4 11 18 -9 14 -24 -3 -11 -13
-10 -15 6 -9 15 4 13 1 -6 -16 -30 -26 -8 -16 40 18 20 14 1 -11 -45 -58 -61
-63 -72 -78 -46 -64 18 11 51 39 72 63 44 49 48 48 19 -9 -11 -22 -20 -42 -20
-45 0 -3 23 21 52 52 65 73 66 74 44 38 -10 -16 -30 -42 -44 -57 -27 -30 -24
-35 11 -17 21 10 21 10 2 -6 -11 -8 -24 -14 -30 -12 -5 2 -18 -5 -27 -15 -12
-12 -14 -18 -5 -18 7 0 4 -7 -7 -15 -34 -26 -9 -16 41 15 26 16 51 30 56 30 5
0 26 10 45 22 20 12 44 23 54 23 16 2 2 -13 -81 -83 -13 -11 -13 -12 -1 -6 8
4 23 14 32 22 9 7 22 11 28 7 6 -3 9 -1 8 5 -2 6 7 18 19 27 21 14 22 14 18
-7 -3 -17 -1 -20 13 -15 11 4 9 -2 -7 -19 -14 -15 -20 -26 -14 -26 6 0 16 7
23 16 8 8 23 20 34 25 28 14 -58 -63 -114 -102 -32 -22 -38 -29 -20 -25 22 6
23 5 8 -6 -9 -7 -25 -19 -35 -26 -10 -7 7 0 37 15 30 15 67 33 83 40 26 11 27
11 17 -7 -6 -11 -29 -29 -50 -40 -22 -11 -40 -22 -40 -25 0 -5 61 20 113 47
l39 19 -7 -23 c-4 -13 -14 -39 -21 -58 -13 -32 -13 -33 2 -15 8 11 25 42 36
68 18 42 52 76 64 65 2 -3 -21 -53 -50 -113 -30 -60 -45 -98 -33 -85 11 14 36
58 55 98 19 40 37 71 39 68 3 -3 2 -27 -3 -53 -11 -65 -11 -67 -14 -73 -1 -3
-3 -15 -4 -27 -2 -16 1 -20 9 -13 7 6 16 5 23 -2 14 -14 16 -32 3 -24 -5 3
-14 -1 -21 -9 -7 -8 -9 -15 -5 -15 4 0 2 -7 -5 -15 -7 -8 -9 -15 -5 -15 9 0
70 69 97 109 l18 26 0 -28 c0 -15 -14 -55 -31 -88 -16 -34 -26 -58 -21 -55 5
3 15 19 22 36 14 35 31 40 23 8 -3 -13 -3 -20 1 -16 4 3 11 28 16 55 l9 48 -4
-55 c-2 -30 -6 -64 -9 -75 -4 -11 3 -2 14 20 l21 40 -6 -35 c-5 -34 -5 -33 14
10 24 54 26 44 6 -29 -10 -38 -11 -59 -4 -70 9 -14 10 -14 5 2 -3 9 -1 17 4
17 6 0 10 9 10 19 0 11 4 22 9 25 4 3 4 -17 -1 -45 -5 -28 -7 -54 -4 -57 3 -3
6 3 6 14 0 10 5 26 10 34 7 11 9 7 6 -15 -2 -16 -1 -24 1 -17 8 22 23 2 24
-31 0 -27 2 -29 9 -12 7 17 9 17 9 3 1 -10 6 -18 12 -18 5 0 7 5 4 10 -3 6 -2
10 4 10 6 0 13 -11 17 -25 3 -14 10 -23 14 -20 4 3 15 -12 23 -33 9 -20 16
-31 16 -24 1 7 -10 36 -24 65 -14 29 -19 43 -10 32 9 -11 20 -19 25 -18 5 2 7
-3 5 -10 -3 -6 5 -23 16 -37 20 -24 20 -24 9 -2 -6 13 -9 26 -6 29 3 3 -9 24
-26 46 -23 29 -31 49 -30 71 2 17 -4 45 -12 61 -9 17 -16 42 -16 58 0 25 3 27
28 22 23 -5 22 -4 -8 11 -19 9 -46 16 -60 15 -22 -1 -20 1 10 15 19 9 29 18
23 21 -20 7 -15 23 6 23 30 0 44 24 30 52 -7 13 -15 30 -19 38 -4 8 -16 17
-26 18 -10 2 -28 12 -39 21 -11 10 -42 26 -70 36 -58 20 -83 39 -45 32 14 -2
19 -2 13 0 -7 3 -13 9 -13 14 0 5 -9 9 -19 9 -24 0 -38 19 -21 30 7 5 -9 16
-44 31 -31 12 -56 28 -56 35 0 16 -59 46 -73 37 -5 -3 -7 -2 -4 4 6 10 -33 33
-56 33 -7 0 -73 54 -147 120 -74 66 -174 147 -221 179 -96 67 -116 86 -99 96
6 4 18 1 27 -7 15 -12 15 -11 4 10 -14 26 -5 28 23 5 20 -18 20 -18 3 9 l-16
26 42 20 c42 19 59 25 110 36 l27 6 -19 -50 c-10 -27 -15 -47 -10 -44 13 8 10
-7 -6 -36 -8 -14 -14 -29 -14 -35 0 -5 4 -2 10 8 8 14 14 15 24 7 11 -9 15 -1
24 42 l10 53 -3 -62 c-2 -68 3 -74 14 -16 l8 38 2 -35 3 -35 7 40 7 40 2 -40
c1 -31 4 -36 12 -25 7 11 8 4 4 -25 l-5 -40 14 40 14 40 2 -50 c2 -44 4 -39
16 44 18 128 22 132 23 26 2 -124 20 -149 23 -30 1 87 2 88 8 30 l7 -60 2 65
c1 36 7 74 12 85 6 13 8 -13 5 -80 l-4 -100 13 85 14 85 -4 -110 c-2 -80 -1
-98 5 -65 5 25 10 63 11 85 2 29 4 21 9 -30 l6 -70 3 55 c2 44 5 50 11 30 5
-16 7 3 5 50 l-4 75 12 -68 c7 -38 15 -65 20 -61 4 4 7 -3 7 -15 0 -12 -4 -19
-10 -16 -15 9 -12 -7 5 -29 8 -11 16 -29 16 -40 2 -29 17 67 20 129 2 48 3 47
9 -20 6 -67 7 -68 8 -17 2 39 6 52 17 52 8 0 15 6 15 13 0 8 4 7 10 -3 6 -9 8
-40 4 -75 -10 -95 6 -57 21 51 l15 99 -4 -100 c-3 -79 -2 -92 6 -60 5 22 12
76 16 119 l7 80 11 -41 c9 -34 7 -57 -13 -138 -13 -54 -22 -100 -20 -102 2 -2
14 33 27 77 13 44 27 80 31 80 5 0 10 -21 10 -47 l1 -48 9 59 c5 32 10 61 12
63 3 2 7 -15 11 -38 4 -23 9 -40 11 -37 3 3 0 27 -5 54 -21 103 -23 114 -12
114 8 0 33 -86 55 -195 3 -13 5 -9 6 10 1 28 -19 124 -35 170 -6 17 -4 17 10
-3 10 -12 21 -20 25 -18 4 3 8 0 8 -7 0 -7 12 -32 28 -56 24 -39 29 -42 37
-27 7 13 6 21 -2 29 -10 10 -11 8 -6 -8 5 -14 4 -17 -3 -10 -6 6 -8 21 -4 34
5 21 8 18 29 -26 13 -26 24 -57 24 -67 0 -11 3 -16 6 -13 6 6 -11 112 -23 145
-5 11 -3 13 8 6 8 -4 20 -9 28 -9 8 0 24 -15 35 -34 14 -25 16 -32 5 -27 -9 5
-9 3 2 -6 9 -7 21 -24 28 -36 25 -47 22 -12 -3 38 -25 50 -36 83 -16 48 6 -9
19 -15 30 -13 13 3 31 -9 53 -36 30 -34 36 -37 47 -24 7 8 17 12 24 8 30 -19
47 -8 24 15 -9 9 -6 12 16 12 15 0 25 -4 22 -9 -3 -5 5 -16 19 -25 31 -20 45
-21 19 0 -18 14 -18 15 6 10 14 -3 3 6 -25 20 l-50 25 40 -4 c22 -2 32 -2 23
0 -10 2 -18 8 -18 12 0 5 -17 11 -37 14 -23 4 -43 15 -51 27 -7 11 -30 27 -51
36 -22 9 -42 22 -45 30 -3 9 -10 12 -16 9 -5 -3 -10 1 -10 11 0 13 -4 11 -19
-7 l-20 -24 8 37 c7 29 6 35 -5 31 -19 -7 -17 6 4 31 16 20 16 20 -1 6 -16
-12 -20 -12 -28 1 -14 22 -11 33 6 19 13 -11 14 -10 10 1 -3 8 -19 20 -36 28
-26 11 -32 11 -48 -3 -21 -19 -46 -22 -35 -3 5 6 -9 -1 -29 -18 -20 -16 -51
-41 -69 -54 -32 -23 -31 -23 7 19 22 25 31 37 20 29 -27 -21 -56 -34 -90 -38
-5 -1 -4 -5 4 -10 9 -6 10 -11 2 -15 -6 -4 -11 -2 -11 4 0 6 -12 3 -27 -7 -36
-22 -28 -13 21 26 46 37 36 41 -15 7 -22 -15 -44 -23 -56 -20 -12 3 -24 1 -27
-5 -4 -6 -15 -11 -24 -11 -9 0 -27 -11 -41 -23 -21 -20 -45 -26 -136 -37 -60
-7 -116 -15 -122 -17 -7 -3 -13 2 -13 11 0 21 -8 20 -28 -3 -14 -16 -110 -48
-117 -39 -1 2 -14 22 -29 46 -35 57 -44 54 -10 -4 22 -38 25 -48 13 -55 -8 -5
-18 -9 -22 -9 -12 0 -60 50 -54 57 11 10 44 -8 55 -30 6 -12 11 -16 11 -9 1 7
-8 30 -19 51 -10 21 -16 41 -13 45 16 16 44 2 78 -36 22 -25 31 -31 21 -16
-19 33 -21 44 -3 31 6 -6 22 -12 34 -15 20 -5 20 -3 -9 46 -17 28 -35 57 -42
65 -9 11 -8 13 4 9 8 -2 34 -28 58 -58 24 -29 43 -46 42 -39 -4 29 0 40 13 33
9 -6 9 -4 1 7 -6 8 -13 26 -16 41 -5 26 -5 26 21 10 18 -11 11 0 -20 34 -26
28 -54 65 -64 83 -15 31 -15 32 2 23 21 -12 62 -56 86 -92 10 -13 17 -20 17
-15 0 15 -39 77 -68 108 -36 38 -16 34 27 -5 38 -36 25 -12 -23 40 -49 52 -19
37 47 -25 63 -61 51 -30 -17 40 -21 20 -33 37 -27 37 11 0 92 -60 134 -98 43
-41 31 -15 -15 31 -22 22 -36 43 -30 45 6 2 -4 23 -24 49 -19 25 -33 47 -31
50 9 8 35 -9 46 -30 8 -15 10 -16 6 -3 -5 19 0 19 62 1 10 -3 -4 6 -32 21 -68
35 -88 63 -72 98 11 23 17 26 67 26 30 0 72 -5 94 -9 22 -6 35 -6 30 -1 -5 5
-45 15 -89 23 l-80 13 61 21 61 21 16 -32 16 -31 0 38 c1 33 4 37 26 37 14 0
25 4 25 10 0 5 -7 7 -15 4 -10 -4 -15 0 -15 12 0 11 -3 29 -6 42 -4 12 -2 22
4 22 6 0 13 -10 15 -22 3 -18 5 -16 6 8 0 19 -6 38 -19 49 -20 18 -20 18 18
52 32 29 26 27 -38 -15 -41 -27 -82 -52 -90 -56 -15 -8 31 37 86 84 17 14 25
22 20 18 -19 -15 -28 -8 -15 10 8 9 -5 0 -29 -20 -63 -56 -64 -46 -1 20 30 31
64 68 74 82 l20 25 -24 -20 -24 -20 7 20 c5 13 -10 4 -41 -25 -26 -25 -40 -36
-30 -24 20 24 22 39 5 28 -6 -4 1 9 16 29 32 42 47 50 22 12 -25 -38 -12 -30
20 13 15 20 21 31 12 24 -13 -10 -17 -10 -21 0 -7 21 -7 28 0 26 5 -2 7 -7 5
-13 -2 -5 0 -6 5 -2 4 5 8 12 8 15 1 4 7 18 14 32 l14 25 -22 -19 c-11 -11
-24 -16 -28 -13 -3 4 -1 7 5 7 7 0 11 3 10 8 -1 4 10 31 25 60 15 28 26 52 24
52 -2 0 -21 -27 -41 -60 -35 -57 -59 -84 -36 -40 6 11 9 20 6 20 -3 0 2 16 9
34 10 22 11 37 5 41 -6 3 -8 18 -5 33 3 15 2 21 -1 14 -3 -6 -10 -10 -15 -6
-5 3 -9 -3 -10 -13 0 -16 -1 -16 -9 2 -8 18 -9 19 -9 1 -1 -12 -6 -16 -16 -12
-18 6 -19 1 -5 -24 7 -13 7 -21 -2 -26 -6 -4 -8 -3 -4 4 3 6 1 14 -5 17 -7 5
-9 -8 -5 -41 3 -31 2 -43 -4 -34 -7 11 -11 3 -16 -28 -4 -23 -10 -42 -15 -42
-5 0 -6 -15 -4 -32 l5 -33 -14 30 c-22 45 -19 7 4 -43 11 -23 14 -40 8 -36 -8
5 -9 1 -4 -11 5 -15 4 -16 -8 -6 -8 7 -17 27 -20 44 -2 18 -3 -5 -2 -51 3 -82
-7 -92 -19 -20 -4 21 -12 41 -17 44 -7 5 -9 -3 -4 -22 16 -66 15 -76 -4 -29
-18 45 -19 46 -15 15 4 -29 3 -31 -5 -12 -15 36 -21 26 -17 -30 4 -51 4 -52
-9 -23 l-13 30 0 -30 c-1 -16 4 -47 10 -68 15 -57 3 -57 -15 0 -15 48 -15 48
0 -47 2 -14 -5 0 -15 30 l-18 55 3 -61 c2 -33 8 -73 14 -89 6 -15 9 -30 6 -32
-2 -2 -12 16 -21 42 -10 25 -20 44 -22 41 -2 -2 5 -28 17 -57 26 -70 25 -75
-5 -19 -27 51 -33 47 -10 -7 8 -20 14 -38 11 -40 -2 -2 -14 21 -26 52 -26 64
-38 69 -16 7 20 -54 10 -54 -14 1 -15 32 -20 37 -20 19 0 -21 -98 -148 -107
-139 -2 2 8 37 22 78 27 79 30 92 16 71 -6 -10 -10 -3 -15 22 l-7 36 -21 -20
c-33 -30 -34 -15 -4 31 28 42 21 43 -23 5 l-24 -21 13 25 c7 14 23 40 37 58
29 39 22 42 -14 5 -20 -22 -24 -23 -18 -8 4 11 10 67 12 125 l5 105 -21 -32
c-11 -18 -23 -33 -25 -33 -2 0 9 32 25 71 37 90 36 99 -2 29 -17 -30 -28 -48
-25 -39 2 9 14 47 25 84 12 37 21 75 20 84 -1 9 -4 6 -9 -9 l-8 -25 -2 25 c-1
21 -4 18 -14 -15 -12 -37 -13 -33 -10 60 3 93 2 96 -6 40 -14 -85 -20 -91 -15
-15 l4 65 -13 -60 -14 -60 4 80 c2 44 1 72 -2 63 -9 -31 -24 -19 -25 20 -1 33
-2 34 -9 12 -8 -25 -8 -25 -10 5 -2 23 -5 15 -15 -30 l-13 -60 4 60 c2 43 1
53 -5 35 -5 -14 -10 -41 -11 -60 -2 -27 -5 -20 -15 35 -11 59 -13 64 -14 30
-1 -30 -4 -36 -11 -25 -6 8 -8 33 -5 55 4 29 2 35 -4 20 -9 -19 -10 -19 -10 3
-1 12 -5 22 -10 22 -5 0 -11 14 -15 31 -3 17 -10 28 -16 24 -6 -4 -10 11 -11
37 0 33 -2 38 -9 23 -7 -17 -9 -16 -9 9 -1 16 -4 26 -8 23 -3 -4 -18 3 -31 15
l-25 23 6 -33z m94 -368 c-3 -3 -12 -4 -19 -1 -8 3 -5 6 6 6 11 1 17 -2 13 -5z
m240 -106 c-3 -8 -6 -5 -6 6 -1 11 2 17 5 13 3 -3 4 -12 1 -19z m-239 -65
c-10 -2 -26 -2 -35 0 -10 3 -2 5 17 5 19 0 27 -2 18 -5z m248 -167 c-7 -44
-26 -74 -26 -40 0 23 22 95 28 90 2 -3 1 -25 -2 -50z m534 41 c0 -2 -15 -16
-32 -33 l-33 -29 29 33 c28 30 36 37 36 29z m-795 -72 c-46 -9 -53 -13 -30
-15 l30 -2 -30 -8 c-20 -6 -5 -7 45 -5 59 4 67 3 35 -4 -22 -5 -57 -11 -77
-14 -36 -5 -38 -3 -38 23 0 25 4 29 33 33 70 9 89 4 32 -8z m-178 -102 c-3
-10 -5 -4 -5 12 0 17 2 24 5 18 2 -7 2 -21 0 -30z m70 -20 c-3 -10 -5 -2 -5
17 0 19 2 27 5 18 2 -10 2 -26 0 -35z m91 30 c-9 -2 -19 -12 -21 -21 -3 -12
-5 -10 -6 6 -1 17 4 22 22 21 15 -1 17 -3 5 -6z m796 -9 c23 -9 9 -24 -21 -24
-13 0 -36 -9 -50 -20 -44 -35 -47 -22 -3 15 44 37 49 39 74 29z m-684 -28
c-47 -13 -65 -11 -40 4 8 6 31 9 50 9 l35 -1 -45 -12z m-71 -4 c0 -4 -4 -16
-9 -27 -7 -17 -9 -17 -9 -3 -1 11 -6 15 -16 12 -14 -6 -21 7 -10 17 7 8 45 8
44 1z m-92 -39 c-3 -10 -5 -4 -5 12 0 17 2 24 5 18 2 -7 2 -21 0 -30z m30 -15
c-2 -13 -4 -5 -4 17 -1 22 1 32 4 23 2 -10 2 -28 0 -40z m168 42 c-11 -5 -29
-8 -40 -8 -16 0 -15 2 5 8 34 11 60 11 35 0z m651 -32 c8 -27 -3 -34 -24 -15
-10 10 -27 17 -38 17 -16 1 -16 3 5 14 30 16 48 11 57 -16z m-86 -2 c0 -2 -8
-10 -17 -17 -16 -13 -17 -12 -4 4 13 16 21 21 21 13z m-600 -16 c0 -5 -5 -10
-11 -10 -5 0 -7 5 -4 10 3 6 8 10 11 10 2 0 4 -4 4 -10z m37 4 c-3 -3 -12 -4
-19 -1 -8 3 -5 6 6 6 11 1 17 -2 13 -5z m163 -54 c-18 -33 -24 -16 -9 27 11
31 14 34 17 16 2 -12 -2 -32 -8 -43z m435 31 c-6 -5 -23 -12 -40 -16 l-30 -6
25 15 c28 17 60 22 45 7z m-675 -21 c0 -5 -5 -10 -11 -10 -5 0 -7 5 -4 10 3 6
8 10 11 10 2 0 4 -4 4 -10z m-350 -30 c-34 -7 -34 -7 15 -10 46 -3 47 -4 13
-7 l-38 -4 20 -40 c11 -21 16 -39 10 -39 -8 0 -60 90 -60 105 0 3 17 4 38 4
l37 -2 -35 -7z m380 0 c0 -5 -5 -10 -11 -10 -5 0 -7 5 -4 10 3 6 8 10 11 10 2
0 4 -4 4 -10z m45 0 c-3 -5 -13 -10 -21 -10 -8 0 -14 5 -14 10 0 6 9 10 21 10
11 0 17 -4 14 -10z m320 -123 l5 -42 -15 50 -14 50 5 -75 c7 -92 -7 -86 -16 8
l-7 67 -2 -61 c-1 -66 -14 -85 -83 -120 -32 -16 -31 -15 15 34 51 55 56 65 31
55 -14 -5 -14 -2 2 23 l18 29 -35 -32 c-45 -42 -66 -43 -28 -1 17 17 35 40 41
51 8 15 2 14 -28 -9 -43 -33 -37 -21 31 59 l39 47 18 -45 c10 -25 20 -64 23
-88z m-285 113 c0 -5 -2 -10 -4 -10 -3 0 -8 5 -11 10 -3 6 -1 10 4 10 6 0 11
-4 11 -10z m-110 -14 c0 -3 -4 -8 -10 -11 -5 -3 -10 -1 -10 4 0 6 5 11 10 11
6 0 10 -2 10 -4z m-280 -15 l-45 -5 55 -7 55 -6 -59 1 c-38 1 -61 6 -64 14 -3
9 11 12 50 10 l53 -1 -45 -6z m340 -1 c0 -5 -4 -10 -10 -10 -5 0 -10 5 -10 10
0 6 5 10 10 10 6 0 10 -4 10 -10z m354 -6 c3 -8 2 -12 -4 -9 -6 3 -10 10 -10
16 0 14 7 11 14 -7z m-1109 -35 c8 27 11 25 71 -59 21 -30 30 -48 19 -40 -17
14 -18 13 -12 -5 5 -14 1 -12 -14 8 -11 15 -24 25 -29 22 -8 -5 -80 77 -80 92
0 4 9 -3 19 -16 l19 -24 7 22z m485 1 c-36 -12 -98 -12 -105 0 -4 6 19 10 62
9 49 -1 61 -3 43 -9z m230 6 c0 -3 -4 -8 -10 -11 -5 -3 -10 -1 -10 4 0 6 5 11
10 11 6 0 10 -2 10 -4z m30 -6 c0 -5 -4 -10 -10 -10 -5 0 -10 5 -10 10 0 6 5
10 10 10 6 0 10 -4 10 -10z m-343 -77 c46 -107 41 -128 -6 -27 -34 73 -34 74
-23 74 5 0 18 -21 29 -47z m41 22 c9 -20 9 -25 -3 -25 -19 0 -28 17 -13 23 8
3 6 6 -4 6 -21 1 -25 21 -5 21 8 0 19 -11 25 -25z m79 19 c-3 -3 -12 -4 -19
-1 -8 3 -5 6 6 6 11 1 17 -2 13 -5z m58 -34 c18 -8 18 -9 -5 -9 -14 0 -45 4
-70 8 l-45 8 50 1 c28 0 59 -3 70 -8z m-78 -16 c-3 -3 -12 -4 -19 -1 -8 3 -5
6 6 6 11 1 17 -2 13 -5z m-27 -23 c13 -26 13 -31 -3 -31 -8 0 -19 11 -25 25
-9 20 -9 25 3 25 8 0 19 -9 25 -19z m-880 -1 c8 -5 11 -10 5 -10 -5 0 -17 5
-25 10 -8 5 -10 10 -5 10 6 0 17 -5 25 -10z m995 -21 c5 -5 -9 -9 -38 -9 -26
0 -47 2 -47 4 0 2 -3 11 -6 19 -5 13 1 14 38 6 24 -6 47 -14 53 -20z m448 -26
c-5 -33 -23 -46 -23 -17 0 16 20 58 25 52 1 -1 0 -18 -2 -35z m211 21 c30 -29
14 -27 -34 6 -13 8 -13 10 2 10 9 0 24 -7 32 -16z m-754 -29 c0 -8 -4 -15 -9
-15 -5 0 -11 7 -15 15 -3 9 0 15 9 15 8 0 15 -7 15 -15z m158 0 c-8 -8 -122
-8 -125 1 -2 5 25 8 63 6 36 -2 64 -5 62 -7z m342 -21 c-8 -8 -23 -20 -34 -26
-19 -10 -18 -8 3 16 26 27 53 37 31 10z m-537 -26 c6 -22 5 -22 -8 -4 -17 22
-20 40 -6 32 5 -3 11 -16 14 -28z m-558 -7 c-8 -17 -21 -33 -27 -37 -8 -5 -7
1 3 16 8 14 19 31 23 38 15 25 16 11 1 -17z m613 11 c6 -18 -15 -14 -22 4 -4
10 -1 14 6 12 6 -2 14 -10 16 -16z m52 -3 c0 -6 -4 -7 -10 -4 -5 3 -10 11 -10
16 0 6 5 7 10 4 6 -3 10 -11 10 -16z m55 11 c4 -6 -5 -10 -19 -10 -14 0 -26 5
-26 10 0 6 9 10 19 10 11 0 23 -4 26 -10z m361 -36 c-30 -21 -45 -16 -16 6 14
10 27 16 30 13 3 -2 -4 -11 -14 -19z m-401 -4 c3 -5 1 -10 -4 -10 -6 0 -11 5
-11 10 0 6 2 10 4 10 3 0 8 -4 11 -10z m55 6 c0 -2 -9 -6 -20 -9 -11 -3 -20
-1 -20 4 0 5 9 9 20 9 11 0 20 -2 20 -4z m350 -41 c-7 -8 -17 -15 -23 -15 -5
0 -2 9 8 20 21 23 35 19 15 -5z m-1430 -5 c-6 -11 -13 -20 -16 -20 -2 0 0 9 6
20 6 11 13 20 16 20 2 0 0 -9 -6 -20z m282 -2 c-7 -7 -12 -8 -12 -2 0 14 12
26 19 19 2 -3 -1 -11 -7 -17z m347 -80 c-79 -125 -84 -134 -72 -123 5 6 38 48
73 95 100 135 98 129 -17 -68 -24 -41 -43 -77 -43 -80 0 -9 96 124 127 176 45
76 36 37 -16 -67 -28 -56 -49 -101 -47 -101 3 0 28 41 56 90 56 97 76 120 35
40 -28 -55 -30 -64 -13 -54 7 4 8 3 4 -5 -4 -6 -11 -9 -16 -6 -5 3 -14 -3 -19
-14 -14 -25 -14 -34 0 -25 12 7 1 -16 -22 -46 -9 -12 -10 -12 -5 5 6 20 6 20
-9 1 -10 -13 -15 -15 -15 -6 0 7 -3 11 -6 8 -3 -4 -1 -16 5 -27 11 -19 10 -20
-16 -10 -26 10 -26 9 -10 -9 28 -30 20 -34 -20 -9 -66 41 -69 41 -28 3 l40
-37 -57 37 c-38 24 -55 41 -50 49 28 48 186 274 190 271 2 -2 -20 -42 -49 -88z
m361 82 c0 -5 -2 -10 -4 -10 -3 0 -8 5 -11 10 -3 6 -1 10 4 10 6 0 11 -4 11
-10z m110 -20 c0 -5 -5 -10 -11 -10 -5 0 -7 5 -4 10 3 6 8 10 11 10 2 0 4 -4
4 -10z m528 -46 c7 -14 8 -23 2 -19 -15 9 -32 45 -22 45 5 0 14 -12 20 -26z
m-1 -38 c13 -11 23 -26 23 -33 0 -20 -13 -9 -52 40 -31 40 -24 38 29 -7z
m-856 -75 c-39 -76 -55 -99 -66 -94 -9 3 -15 9 -13 13 7 17 123 188 126 185 2
-1 -20 -48 -47 -104z m64 52 c-14 -31 -34 -71 -46 -89 l-20 -33 30 -30 c42
-41 39 -47 -6 -16 -48 32 -62 32 -26 -1 l28 -25 -30 17 c-16 10 -32 19 -34 21
-4 3 119 213 125 213 2 0 -7 -25 -21 -57z m1509 32 c3 -8 0 -14 -6 -12 -6 1
-13 -5 -16 -13 -2 -8 -1 -12 3 -8 5 4 14 3 20 -2 9 -7 16 -6 25 5 7 8 8 15 3
15 -5 0 -10 7 -10 15 0 19 -1 19 19 -4 15 -18 14 -21 -14 -48 -26 -24 -29 -25
-26 -8 1 11 -2 20 -9 20 -20 0 -25 13 -11 34 15 25 14 25 22 6z m-761 -54 c21
-35 9 -43 -12 -8 -8 12 -21 33 -30 47 -15 24 -15 25 4 8 11 -9 28 -30 38 -47z
m-734 -18 c-33 -60 -56 -90 -62 -82 -5 4 81 139 89 139 2 0 -10 -26 -27 -57z
m91 25 c-4 -18 -10 -43 -14 -55 -12 -39 3 -25 20 17 22 56 26 46 10 -25 -9
-40 -10 -54 -2 -42 6 10 17 26 24 35 12 15 12 15 7 -5 -5 -19 -3 -21 16 -18
12 2 32 11 45 20 28 18 31 10 7 -19 -17 -19 -16 -19 20 2 l38 22 47 -32 c26
-18 67 -52 92 -76 39 -39 42 -44 20 -38 -14 3 -34 6 -45 6 -12 0 -30 15 -43
36 -13 20 -26 33 -29 30 -3 -3 0 -12 7 -21 17 -20 2 -19 -24 2 -12 10 -15 11
-8 3 16 -18 16 -33 0 -24 -7 5 -20 9 -29 9 -10 1 -30 10 -46 20 -15 11 -32 18
-37 17 -5 -2 -18 5 -29 15 -19 18 -20 17 -8 -4 22 -42 10 -44 -41 -7 -38 27
-47 31 -32 13 40 -46 36 -50 -15 -13 -56 39 -76 42 -36 4 36 -34 31 -45 -7
-19 -18 12 -34 23 -36 25 -2 1 18 33 45 72 26 39 49 70 51 68 1 -2 -9 -30 -23
-62 -21 -50 -22 -55 -5 -34 11 14 29 44 41 68 11 23 22 42 24 42 2 0 0 -15 -5
-32z m595 12 c10 -11 13 -20 7 -20 -6 0 -16 9 -22 20 -6 11 -9 20 -7 20 2 0
12 -9 22 -20z m515 -19 c0 -5 -7 -12 -16 -15 -14 -5 -15 -4 -4 9 14 17 20 19
20 6z m-1059 -28 c-12 -20 -14 -14 -5 12 4 9 9 14 11 11 3 -2 0 -13 -6 -23z
m35 -23 c-14 -17 -26 -27 -26 -22 0 13 41 64 47 58 3 -3 -6 -19 -21 -36z m434
8 c0 -6 -7 -5 -15 2 -8 7 -15 17 -15 22 0 6 7 5 15 -2 8 -7 15 -17 15 -22z
m700 -54 c0 -8 -4 -12 -10 -9 -5 3 -10 13 -10 21 0 8 5 12 10 9 6 -3 10 -13
10 -21z m-903 -5 c-14 -8 -22 -8 -30 0 -8 8 -3 11 19 11 25 -1 27 -2 11 -11z
m-530 -53 c35 -30 27 -38 -14 -14 -21 12 -40 23 -42 24 -1 2 0 8 4 13 7 12 17
8 52 -23z m748 23 c11 -17 -1 -21 -15 -4 -8 9 -8 15 -2 15 6 0 14 -5 17 -11z
m489 -34 c5 -29 4 -36 -3 -25 -6 8 -11 28 -11 44 0 39 6 31 14 -19z m216 3 c0
-31 -3 -39 -11 -31 -7 7 -8 24 -4 42 9 43 15 39 15 -11z m-1504 -19 c19 -22
19 -22 -3 -8 -13 8 -23 17 -23 21 0 12 6 9 26 -13z m1884 -31 c-8 -7 -12 -9
-8 -4 4 5 2 18 -4 30 -10 20 -10 20 8 4 16 -15 16 -20 4 -30z m-1395 -19 c81
-14 80 -15 -78 -53 -54 -13 -100 -19 -103 -15 -8 13 -24 11 -21 -3 4 -25 -40
-20 -56 6 -16 24 -16 25 6 19 43 -10 96 -2 90 14 -3 7 -10 10 -17 7 -6 -3 0 3
13 14 14 11 30 18 37 15 7 -2 15 0 18 5 3 6 14 9 24 7 9 -2 49 -9 87 -16z
m288 -32 c4 3 18 -4 32 -17 14 -13 25 -20 25 -16 0 9 81 -47 98 -67 11 -12 5
-16 -34 -22 -26 -3 -52 -9 -58 -11 -6 -2 -29 26 -51 63 -48 80 -53 92 -33 76
8 -7 18 -10 21 -6z m-229 -39 c-16 -17 -23 -27 -15 -23 9 5 12 4 7 -3 -12 -20
-32 -13 -44 13 -7 14 -12 28 -12 30 0 4 37 12 69 14 l25 1 -30 -32z m-386 -11
c3 -23 -1 -27 -40 -37 -24 -6 -49 -13 -55 -15 -26 -9 -12 15 25 42 20 15 39
32 41 36 7 16 26 0 29 -26z m50 21 c17 -17 15 -35 -6 -41 -15 -3 -19 1 -18 24
1 32 6 35 24 17z m362 -13 c-7 -8 -18 -15 -24 -15 -6 0 -2 7 8 15 25 19 32 19
16 0z m-520 -15 c0 -5 -5 -10 -11 -10 -5 0 -7 5 -4 10 3 6 8 10 11 10 2 0 4
-4 4 -10z m-41 -27 c-11 -15 -11 -16 1 -5 17 14 30 16 30 2 0 -11 -25 -25 -63
-34 l-28 -7 33 35 c33 35 52 41 27 9z m764 -9 c11 -14 17 -27 15 -30 -3 -2
-14 10 -27 26 -12 17 -18 30 -14 30 4 0 16 -12 26 -26z m-847 -29 c-3 -8 -10
-15 -15 -15 -7 0 -6 10 1 26 12 26 25 16 14 -11z m-46 -5 c0 -11 -4 -20 -9
-20 -5 0 -7 9 -4 20 3 11 7 20 9 20 2 0 4 -9 4 -20z m458 -70 c9 -48 8 -52 -4
-35 -8 10 -14 30 -14 44 0 14 -3 37 -6 51 -4 19 -3 21 4 10 6 -8 15 -40 20
-70z m312 -21 c6 -41 15 -90 20 -109 5 -19 21 -105 35 -190 26 -153 61 -318
109 -518 22 -92 23 -106 11 -140 l-14 -37 -1 30 c-2 33 0 36 -29 -55 -10 -33
-10 -31 -6 20 3 37 1 49 -5 35 -6 -14 -9 -15 -9 -5 -1 13 -2 13 -11 0 -8 -12
-10 -12 -11 5 0 12 -5 6 -11 -15 -9 -30 -11 -32 -18 -15 -5 15 -10 4 -15 -40
l-8 -60 -12 45 c-10 41 -12 43 -18 20 -4 -14 -7 -40 -7 -58 0 -20 -4 -31 -10
-27 -5 3 -11 -4 -11 -17 -1 -20 -2 -20 -6 -3 -10 45 -15 51 -23 30 -7 -17 -9
-15 -18 15 l-10 35 -3 -55 c-1 -30 -2 -68 -2 -85 1 -21 -1 -24 -5 -10 -4 15
-8 9 -18 -25 -6 -25 -12 -36 -13 -24 -1 12 4 35 10 53 6 18 9 34 7 37 -3 2
-15 -26 -28 -63 -19 -58 -46 -110 -40 -78 7 36 0 44 -32 34 -58 -16 -64 -9
-14 18 42 21 47 27 33 35 -10 5 -26 6 -37 3 -33 -10 -23 2 26 30 51 30 54 46
4 20 -53 -28 -24 1 35 34 30 17 55 34 55 37 0 3 -25 -9 -56 -26 -30 -18 -57
-30 -59 -28 -2 2 14 28 36 57 22 29 35 50 28 45 -9 -5 -10 0 -5 20 6 25 5 26
-20 20 -35 -9 -24 10 18 32 16 8 27 18 25 21 -3 3 -20 -2 -36 -10 -41 -20 -39
-8 3 23 37 27 41 39 8 21 -19 -10 -19 -8 4 34 14 24 26 55 28 69 1 13 11 36
20 51 l18 28 -38 -29 -39 -28 35 40 c63 70 76 90 30 49 l-44 -40 31 40 c16 22
38 52 47 67 16 25 16 26 -1 24 -10 -2 -18 -10 -18 -19 0 -8 -3 -19 -7 -22 -12
-12 0 39 20 91 15 36 17 51 8 51 -7 0 -12 -9 -12 -20 1 -11 -6 -21 -15 -22
-14 -3 -14 3 3 48 17 45 17 49 2 36 -15 -12 -16 -12 -10 8 5 14 2 31 -8 44
-14 21 -15 20 -40 -27 -30 -59 -32 -55 -7 17 15 44 17 74 13 164 -3 79 -1 107
7 100 6 -6 15 -35 20 -65 5 -30 10 -44 11 -30 1 23 2 24 11 5 7 -15 8 -11 3
15 -13 62 -2 168 18 181 5 3 13 34 19 70 18 119 31 115 49 -12z m-401 7 c1
-67 -5 -55 -12 24 -4 42 -3 58 3 45 5 -11 9 -42 9 -69z m154 45 c14 -28 13
-41 -4 -41 -4 0 -7 8 -7 18 0 9 -3 25 -7 35 -12 29 3 19 18 -12z m385 4 c-3
-3 -9 2 -12 12 -6 14 -5 15 5 6 7 -7 10 -15 7 -18z m-1050 -20 c-3 -3 -9 2
-12 12 -6 14 -5 15 5 6 7 -7 10 -15 7 -18z m405 -90 l7 -30 -14 25 c-7 14 -16
45 -20 70 l-5 45 13 -40 c7 -22 16 -53 19 -70z m727 100 c0 -2 -9 -9 -20 -15
-12 -6 -20 -7 -20 -1 0 5 8 12 18 14 9 3 18 5 20 6 1 0 2 -1 2 -4z m-496 -92
c3 -25 2 -43 -3 -43 -13 0 -19 26 -19 85 0 55 9 37 22 -42z m-714 49 c0 -15
-2 -15 -10 -2 -13 20 -13 33 0 25 6 -3 10 -14 10 -23z m850 24 c0 -2 -7 -6
-15 -10 -8 -3 -15 -1 -15 4 0 6 7 10 15 10 8 0 15 -2 15 -4z m387 -18 c-30
-24 -15 -22 33 2 58 30 49 16 -12 -20 -55 -31 -74 -37 -63 -20 4 6 -3 9 -16 7
-12 -1 -24 3 -26 9 -4 13 55 42 84 40 l23 -1 -23 -17z m-467 -33 c0 -14 -4
-25 -10 -25 -5 0 -10 4 -10 9 0 5 -3 16 -6 25 -4 11 -1 16 10 16 10 0 16 -9
16 -25z m147 -7 c-3 -7 -5 -2 -5 12 0 14 2 19 5 13 2 -7 2 -19 0 -25z m-180
-30 c-3 -7 -5 -2 -5 12 0 14 2 19 5 13 2 -7 2 -19 0 -25z m-15 -104 c-43 -26
-53 -46 -13 -24 12 6 21 8 21 6 0 -10 -65 -40 -87 -41 -31 -1 -12 19 52 56 62
36 86 38 27 3z m792 -33 c-14 -22 -32 -42 -40 -45 -17 -7 -11 6 26 52 36 44
45 39 14 -7z m176 9 c0 -5 -2 -10 -4 -10 -3 0 -8 5 -11 10 -3 6 -1 10 4 10 6
0 11 -4 11 -10z m-150 -39 c-19 -16 -37 -27 -40 -24 -6 6 51 53 65 53 6 0 -6
-14 -25 -29z m-703 -23 c-3 -8 -6 -5 -6 6 -1 11 2 17 5 13 3 -3 4 -12 1 -19z
m933 7 c19 -7 28 -13 20 -13 -8 0 -31 6 -50 13 -19 7 -28 13 -20 13 8 0 31 -6
50 -13z m-1113 -11 c-3 -3 -12 -4 -19 -1 -8 3 -5 6 6 6 11 1 17 -2 13 -5z
m1024 -61 c-20 -34 -37 -48 -89 -75 -75 -40 -76 -34 -2 16 36 24 71 51 79 60
18 21 24 21 12 -1z m-837 -69 c-3 -13 -11 -27 -17 -31 -7 -4 -8 2 -3 18 4 13
8 38 7 54 0 29 0 29 9 7 6 -13 7 -35 4 -48z m876 57 c0 -5 -7 -12 -16 -15 -24
-9 -28 -7 -14 9 14 17 30 20 30 6z m-20 -49 c0 -5 -16 -16 -35 -25 -30 -14
-33 -14 -28 -1 8 22 63 44 63 26z m-810 -61 c0 -4 -6 -8 -14 -8 -8 0 -12 6 -9
14 5 13 23 9 23 -6z m1088 12 c-10 -2 -26 -2 -35 0 -10 3 -2 5 17 5 19 0 27
-2 18 -5z m22 -43 c-12 -8 -12 -10 -1 -10 11 0 11 -3 1 -15 -7 -8 -18 -15 -24
-15 -6 0 -5 4 3 9 11 7 4 11 -25 17 l-39 8 35 7 c58 11 68 11 50 -1z m40 -15
c0 -8 -4 -15 -8 -15 -5 0 -9 7 -9 15 0 8 4 15 9 15 4 0 8 -7 8 -15z m-230 -36
c-7 -11 -9 -27 -6 -34 8 -22 -7 -25 -31 -5 -20 16 -21 19 -8 30 13 11 14 10 9
-6 -4 -13 2 -10 16 9 26 32 35 35 20 6z m-1161 -89 c-1 -41 -6 -60 -14 -60
-11 0 -13 19 -5 40 3 5 6 29 8 63 1 9 4 17 7 17 3 0 4 -27 4 -60z m-18 -73
c13 4 19 0 19 -11 0 -9 8 -16 18 -16 15 0 15 2 2 11 -11 8 -9 9 10 3 46 -12
56 -21 31 -29 -12 -4 -25 -4 -28 -1 -4 3 2 6 12 6 10 0 16 2 13 5 -3 4 -18 3
-33 -1 l-28 -7 29 -13 c23 -10 25 -13 9 -14 l-20 -1 20 -16 c15 -12 16 -14 3
-10 -9 3 -34 8 -55 11 -30 4 -33 4 -13 -3 23 -8 24 -9 3 -10 -12 -1 -24 -5
-27 -10 -4 -5 4 -7 16 -3 13 3 19 1 15 -5 -4 -7 8 -14 29 -18 20 -3 34 -8 32
-10 -5 -5 -168 22 -174 28 -8 7 9 96 16 92 5 -3 13 7 19 22 9 24 10 20 6 -27
l-4 -55 13 50 c10 41 13 46 17 25 4 -20 7 -14 15 25 9 49 9 49 12 14 3 -31 6
-36 23 -32z m89 12 c26 -15 29 -18 10 -13 -40 11 -70 23 -70 29 0 10 26 4 60
-16z m124 -171 c-9 -18 -19 -28 -21 -21 -5 13 27 67 34 59 3 -2 -3 -19 -13
-38z m-165 -124 c10 -9 -45 -3 -59 6 -11 7 -5 8 20 4 19 -4 37 -8 39 -10z
m-24 -54 c12 -4 27 -15 34 -24 11 -13 3 -12 -35 5 -82 36 -81 50 1 19z m165
-7 c-1 -15 -30 -46 -37 -40 -3 4 2 16 12 27 19 21 25 24 25 13z m466 -223 c35
-97 109 -247 410 -840 60 -118 138 -278 173 -355 35 -77 125 -259 201 -405
135 -258 412 -820 425 -860 5 -15 2 -20 -12 -20 -11 0 -59 55 -133 151 -228
300 -269 351 -369 463 -56 62 -138 144 -183 182 -338 286 -550 475 -690 617
-105 105 -128 133 -128 157 0 16 5 32 10 35 6 4 7 11 4 17 -4 5 4 4 17 -3 22
-11 23 -11 9 5 -8 10 -26 23 -40 29 l-25 11 33 4 c29 3 32 5 20 19 -11 14 -10
16 9 11 47 -12 66 61 26 98 -13 12 -23 28 -23 37 0 8 -7 17 -15 21 -12 4 -15
22 -14 78 l2 73 7 -67 c9 -93 20 -97 13 -5 -7 92 12 115 20 24 3 -34 11 -73
16 -87 11 -24 11 -24 7 5 -11 75 -17 149 -12 144 3 -3 13 -37 20 -75 l15 -69
-5 70 -4 70 30 -89 c17 -50 33 -92 35 -95 6 -5 -3 95 -11 124 -4 18 -4 18 6 3
6 -10 14 -40 17 -68 3 -27 10 -47 14 -44 5 3 12 -3 15 -13 18 -56 22 -52 19
17 l-4 75 12 -70 12 -70 12 35 11 35 2 -30 c2 -35 18 -79 20 -55 0 8 7 2 14
-15 12 -28 13 -29 24 -10 10 17 12 13 13 -30 1 -53 4 -48 14 28 7 56 25 53 25
-4 0 -23 4 -38 9 -34 6 3 11 -12 13 -32 l4 -38 9 45 9 45 11 -63 c10 -62 27
-87 32 -47 l3 20 -9 -20 c-7 -13 -10 -15 -10 -5 0 8 4 22 9 30 9 13 10 13 10
0 0 -13 1 -13 11 0 8 12 9 10 4 -9 -5 -15 -3 -21 3 -17 6 4 8 -3 5 -16 -4 -19
-3 -20 6 -8 15 21 13 5 -4 -37 -22 -53 -18 -74 6 -35 23 35 32 42 22 15 -4
-11 -3 -14 5 -9 8 5 10 2 5 -9 -4 -12 -8 -13 -13 -5 -5 9 -9 8 -13 -2 -3 -10
3 -14 18 -14 14 0 21 5 18 11 -3 5 0 5 7 -2 10 -9 10 -20 -4 -55 -14 -36 -14
-40 -1 -24 23 30 43 28 50 -4 3 -16 13 -34 22 -41 12 -11 17 -10 25 4 5 10 13
15 19 12 15 -10 10 2 -8 16 -15 12 -16 12 -8 -1 4 -8 4 -12 0 -7 -11 10 -15
37 -6 37 4 0 13 -6 21 -13 12 -10 12 -9 1 6 -7 9 -10 17 -6 17 5 0 0 10 -11
22 -13 14 -14 19 -4 14 11 -5 10 -4 -1 6 -18 14 -21 81 -5 106 7 11 4 11 -13
1 -15 -10 -17 -16 -8 -22 9 -6 8 -7 -2 -5 -8 2 -15 12 -17 21 -1 9 2 15 6 12
5 -3 11 -1 15 4 3 6 -4 15 -15 21 -11 6 -18 15 -15 20 3 4 -7 18 -22 29 l-28
21 28 -10 c36 -13 34 -4 -3 15 -17 9 -28 20 -25 25 4 6 -2 7 -12 3 -10 -3 -15
-2 -10 2 4 5 0 17 -10 27 -12 13 -13 18 -3 18 9 0 7 5 -5 13 -16 13 -15 14 16
11 27 -3 23 0 -21 15 -30 11 -47 19 -37 20 9 1 17 5 17 10 0 5 -8 12 -17 14
-13 3 -11 5 7 7 14 1 -4 8 -40 15 l-65 13 90 3 90 3 -80 6 c-64 5 -71 7 -35
10 l45 3 -60 7 c-59 7 -60 7 -15 10 l45 3 -35 7 c-29 6 -22 8 34 9 38 0 66 4
62 8 -4 5 -35 7 -69 6 -54 -1 -57 0 -27 7 25 6 10 8 -50 4 -95 -5 -102 2 -14
15 l59 9 -55 2 -55 3 45 7 c44 7 44 7 -20 9 -76 3 -70 7 24 16 40 4 64 11 59
16 -5 5 -44 5 -93 -1 -120 -14 -136 -11 -55 11 71 19 70 19 -57 4 l-43 -5 45
14 c53 16 23 21 -33 5 -77 -21 -45 -1 57 37 58 21 104 40 102 42 -2 2 -55 -10
-117 -27 -62 -17 -114 -29 -116 -27 -2 2 40 18 93 37 53 18 93 34 88 36 -5 2
-56 -10 -114 -26 -57 -17 -106 -28 -108 -26 -2 1 38 18 88 35 50 18 89 35 87
36 -2 2 -55 -7 -117 -21 -62 -14 -115 -23 -117 -21 -2 2 37 18 87 36 50 18 89
34 87 36 -2 2 -55 -7 -117 -21 -112 -26 -160 -28 -80 -4 24 7 39 14 33 16 -5
2 -37 -5 -71 -16 -68 -21 -80 -16 -29 12 17 10 43 27 57 37 19 16 8 13 -49
-10 -41 -16 -76 -30 -79 -30 -3 0 15 14 39 31 51 37 75 60 39 37 -98 -60 -140
-79 -140 -64 0 9 23 27 53 42 28 15 56 33 60 40 4 8 13 14 20 14 7 0 23 9 37
20 15 12 42 20 70 21 25 1 36 4 25 7 l-20 5 20 8 c11 4 -3 5 -32 2 -29 -3 -53
-3 -53 0 0 4 35 17 77 29 64 18 73 23 53 29 -21 6 -22 7 -5 8 11 1 29 9 40 17
l20 16 -20 -5 c-66 -17 -70 -18 -57 -9 8 5 14 13 15 18 1 5 13 9 27 10 14 0
39 8 55 17 l30 18 -35 -6 -35 -5 30 14 c25 12 26 14 10 18 -14 3 -4 10 33 22
51 17 63 42 15 33 -30 -6 -23 1 25 25 l37 18 -35 -5 -35 -5 30 20 29 19 17
-47 c10 -26 34 -94 55 -152z m-1061 118 c15 14 15 12 -2 -13 -12 -16 -31 -39
-44 -50 -18 -15 -20 -16 -10 -2 8 9 12 20 9 23 -3 2 -17 -11 -32 -31 -15 -19
-31 -33 -36 -30 -5 3 -11 1 -14 -4 -10 -16 22 -6 44 14 30 27 24 8 -11 -36
-26 -33 -34 -37 -50 -29 -10 6 -19 14 -19 18 0 5 28 41 62 81 52 62 64 71 73
57 10 -14 13 -13 30 2z m712 -30 c-3 -8 -6 -5 -6 6 -1 11 2 17 5 13 3 -3 4
-12 1 -19z m-1207 -7 c0 -5 -7 -12 -16 -15 -14 -5 -15 -4 -4 9 14 17 20 19 20
6z m486 -20 c-15 -15 -26 -34 -24 -42 2 -7 -3 -13 -10 -14 -16 0 -58 -65 -42
-65 6 0 8 -5 4 -12 -5 -9 -2 -9 9 1 9 7 17 10 17 5 0 -4 12 4 28 17 15 14 47
41 72 59 l45 34 -33 -35 c-18 -20 -30 -38 -27 -41 12 -11 -76 -76 -96 -71 -10
3 -19 9 -19 13 0 5 -7 16 -16 25 -15 15 -15 18 7 43 45 52 103 112 108 112 3
0 -8 -13 -23 -29z m-427 -9 c7 -13 6 -19 -2 -19 -7 0 -13 9 -13 19 0 10 1 18
3 18 1 0 7 -8 12 -18z m-45 -5 c-3 -8 2 -20 11 -27 8 -7 15 -18 15 -24 0 -6
-12 2 -26 18 -20 23 -23 31 -12 37 17 11 18 11 12 -4z m556 9 c0 -2 -19 -19
-42 -36 l-43 -32 37 36 c35 33 48 42 48 32z m-309 -73 c17 -20 18 -23 3 -10
-11 9 -23 15 -26 12 -2 -3 -5 2 -5 10 0 19 -1 20 28 -12z m344 -3 c-11 -12
-13 -20 -6 -20 7 0 9 -4 6 -10 -3 -5 -11 -10 -16 -10 -6 0 -7 5 -4 10 3 6 2
10 -4 10 -13 0 -23 -17 -14 -23 5 -2 2 -2 -4 -1 -7 2 -25 -8 -40 -22 l-28 -24
28 11 c15 7 27 16 27 21 0 5 4 6 10 3 5 -3 24 2 42 11 19 10 28 19 20 22 -10
3 -10 7 -1 18 6 8 16 14 21 14 6 0 4 -8 -3 -17 -12 -15 -12 -16 4 -10 17 6 17
4 -2 -22 -11 -15 -36 -40 -55 -55 -34 -26 -37 -26 -72 -11 -44 18 -39 27 46
85 63 45 70 48 45 20z m-125 7 c0 -2 -10 -12 -22 -23 l-23 -19 19 23 c18 21
26 27 26 19z m590 -29 c0 -19 -12 -34 -33 -41 -15 -6 -17 -3 -11 16 10 32 44
52 44 25z m-225 -56 c-6 -7 -71 26 -85 43 -10 12 1 9 37 -11 28 -16 50 -30 48
-32z m-190 -2 c-16 -16 -25 -30 -21 -30 5 0 3 -7 -4 -15 -13 -16 -31 -20 -29
-7 3 19 -2 23 -16 12 -10 -9 -15 -9 -15 -1 0 10 7 12 25 10 3 0 23 13 43 30
47 39 53 39 17 1z m-448 -2 c-3 -8 -6 -5 -6 6 -1 11 2 17 5 13 3 -3 4 -12 1
-19z m-171 -26 c1 -15 -1 -21 -3 -14 -3 6 -9 9 -15 6 -6 -4 -5 2 1 15 15 27
16 27 17 -7z m1004 24 c0 -3 -4 -8 -10 -11 -5 -3 -10 -1 -10 4 0 6 5 11 10 11
6 0 10 -2 10 -4z m-871 -80 c-9 -8 -10 -5 -5 14 3 14 6 32 7 40 1 8 4 2 6 -14
3 -16 -1 -34 -8 -40z m524 38 c-11 -17 -19 -22 -21 -14 -3 7 3 19 14 27 26 19
27 17 7 -13z m-204 -79 c2 11 5 14 8 8 2 -7 -1 -37 -7 -66 -8 -42 -16 -57 -35
-65 -25 -11 -25 -11 -24 36 1 26 5 61 9 77 l8 30 2 -35 c2 -31 3 -29 13 20
l11 55 7 -40 c3 -22 7 -31 8 -20z m601 45 c-8 -5 -19 -10 -25 -10 -5 0 -3 5 5
10 8 5 20 10 25 10 6 0 3 -5 -5 -10z m-562 -80 c-1 -37 -7 -61 -15 -64 -7 -3
-13 1 -13 9 0 18 23 115 27 115 2 0 2 -27 1 -60z m202 40 c0 -5 0 -12 0 -15 0
-3 -3 -5 -7 -6 -5 0 -14 -6 -21 -11 -9 -8 -16 -8 -23 -1 -7 7 -4 16 12 27 27
18 39 20 39 6z m80 0 c0 -5 -2 -10 -4 -10 -3 0 -8 5 -11 10 -3 6 -1 10 4 10 6
0 11 -4 11 -10z m-17 -62 c-2 -5 4 -8 13 -8 14 0 15 -3 6 -12 -10 -10 -17 -10
-35 0 l-22 13 23 -20 c31 -27 28 -37 -5 -16 -28 18 -28 18 -10 -2 16 -19 16
-21 2 -27 -9 -3 -21 -4 -26 0 -5 3 -9 -2 -9 -10 0 -24 -47 -21 -55 4 -3 11
-11 20 -16 20 -5 0 -9 7 -9 15 0 18 16 20 24 3 3 -7 4 1 0 17 -5 29 -5 29 11
10 9 -11 13 -14 9 -6 -3 7 -1 17 6 21 15 10 100 7 93 -2z m-153 -30 c0 -16 -3
-19 -11 -11 -6 6 -8 16 -5 22 11 17 16 13 16 -11z m165 -48 c-3 -5 -14 -10
-23 -10 -15 0 -15 2 -2 10 20 13 33 13 25 0z m372 -97 c-2 -16 -4 -3 -4 27 0
30 2 43 4 28 2 -16 2 -40 0 -55z m-672 27 c23 -37 26 -60 6 -60 -4 0 -14 23
-23 50 -9 28 -14 50 -12 50 2 0 15 -18 29 -40z m-35 -26 c17 -31 30 -57 28
-58 -2 -1 -15 -7 -30 -14 -25 -10 -29 -9 -39 11 -10 19 -10 20 2 11 14 -12 45
-11 57 1 4 3 -6 4 -21 1 -19 -3 -27 -1 -24 7 2 7 -5 30 -16 52 -18 37 -18 39
-2 25 17 -14 18 -13 12 3 -12 33 1 17 33 -39z m130 46 c0 -5 -2 -10 -4 -10 -3
0 -8 5 -11 10 -3 6 -1 10 4 10 6 0 11 -4 11 -10z m547 -22 c-3 -8 -6 -5 -6 6
-1 11 2 17 5 13 3 -3 4 -12 1 -19z m72 -48 c2 45 4 50 11 29 7 -25 21 -159 16
-159 -1 0 -13 12 -27 28 -13 15 -17 21 -9 15 25 -22 34 -14 12 10 -18 19 -22
34 -20 88 l1 64 7 -65 7 -65 2 55z m-414 30 c3 -5 -4 -6 -15 -3 -11 3 -22 9
-25 13 -3 5 4 6 15 3 11 -3 22 -9 25 -13z m-150 5 c-46 -17 -86 -22 -91 -13
-4 7 -2 8 4 4 7 -4 12 -4 12 1 0 4 19 9 43 10 23 1 38 0 32 -2z m-298 -92 c-8
-8 -25 23 -31 57 -6 34 -6 34 14 -9 11 -24 19 -46 17 -48z m443 65 c10 -6 7
-7 -10 -2 -14 4 -31 7 -37 7 -7 0 -13 4 -13 9 0 10 35 2 60 -14z m-484 -41
c14 -30 14 -31 -1 -12 -25 30 -39 59 -26 51 6 -4 18 -22 27 -39z m465 16 c13
-15 12 -15 -8 -4 -24 12 -29 21 -14 21 5 0 15 -7 22 -17z m-395 -61 c-6 -6
-26 43 -25 61 0 7 7 -3 15 -22 8 -18 13 -36 10 -39z m154 58 c0 -5 -5 -10 -11
-10 -5 0 -7 5 -4 10 3 6 8 10 11 10 2 0 4 -4 4 -10z m644 -5 c3 -8 1 -15 -4
-15 -6 0 -10 7 -10 15 0 8 2 15 4 15 2 0 6 -7 10 -15z m-870 -42 c19 -22 23
-33 14 -37 -7 -3 -4 -4 6 -3 10 1 21 -3 23 -9 5 -14 -71 -39 -87 -29 -8 5 -11
4 -7 -2 4 -6 0 -14 -9 -17 -8 -3 -12 -2 -9 4 3 5 -8 31 -25 58 -31 51 -41 80
-15 46 8 -10 15 -15 15 -10 0 5 6 3 14 -3 11 -9 16 -9 22 0 5 8 13 4 26 -12
17 -21 17 -19 -2 19 -24 50 -10 48 34 -5z m105 4 c1 -5 -3 -5 -9 -2 -5 3 -10
16 -9 28 0 21 1 21 9 2 5 -11 9 -24 9 -28z m636 33 c-3 -5 -11 -10 -16 -10 -6
0 -7 5 -4 10 3 6 11 10 16 10 6 0 7 -4 4 -10z m-335 -42 c0 -14 -19 1 -31 25
-12 22 -12 22 10 3 11 -11 21 -23 21 -28z m95 6 c46 -27 29 -31 -37 -8 -52 17
-77 49 -30 38 15 -4 45 -17 67 -30z m778 29 c-7 -2 -19 -2 -25 0 -7 3 -2 5 12
5 14 0 19 -2 13 -5z m-1449 -19 c3 -8 2 -12 -4 -9 -6 3 -10 10 -10 16 0 14 7
11 14 -7z m88 -111 c-1 -6 2 -14 8 -18 5 -3 10 -2 10 3 0 5 6 9 13 10 6 1 51
12 100 25 48 13 87 21 87 18 0 -5 -107 -40 -165 -55 -5 -1 -21 -6 -34 -10 -19
-7 -31 0 -72 40 -51 50 -64 73 -29 52 11 -7 20 -19 20 -26 0 -7 4 -11 9 -7 5
3 12 1 16 -5 3 -5 11 -10 17 -10 7 0 0 12 -14 28 -14 15 -29 41 -32 57 -6 23
1 16 31 -30 21 -33 37 -65 35 -72z m853 117 c-3 -5 -14 -10 -23 -10 -15 0 -15
2 -2 10 20 13 33 13 25 0z m-1161 -9 c4 -5 -3 -7 -14 -4 -23 6 -26 13 -6 13 8
0 17 -4 20 -9z m601 -10 c-14 -13 -83 -26 -70 -13 9 9 29 15 70 21 6 0 6 -2 0
-8z m160 -11 c3 -6 -1 -7 -9 -4 -18 7 -21 14 -7 14 6 0 13 -4 16 -10z m115
-24 c34 -15 35 -15 5 -11 l-30 5 30 -14 c27 -13 27 -15 8 -16 -28 0 -103 29
-103 41 0 5 7 6 15 2 9 -3 15 -2 14 3 -3 20 2 26 14 16 6 -5 28 -17 47 -26z
m637 12 c-3 -8 -6 -5 -6 6 -1 11 2 17 5 13 3 -3 4 -12 1 -19z m-1534 -2 c3 3
14 1 24 -5 15 -9 10 -11 -24 -9 -41 2 -50 7 -36 21 3 4 11 2 18 -3 7 -5 14 -7
18 -4z m531 5 c3 -5 -1 -11 -9 -15 -9 -3 -15 0 -15 9 0 16 16 20 24 6z m536 0
c0 -17 -18 -21 -24 -6 -3 9 0 15 9 15 8 0 15 -4 15 -9z m-570 -11 c0 -5 -5
-10 -11 -10 -5 0 -7 5 -4 10 3 6 8 10 11 10 2 0 4 -4 4 -10z m690 -15 c-16
-17 -27 -22 -34 -15 -12 12 0 26 29 33 11 3 22 5 24 6 3 0 -6 -10 -19 -24z
m-397 3 c12 -7 51 -22 87 -35 l65 -23 -59 4 c-39 3 -66 11 -80 24 -11 11 -30
24 -41 30 -11 6 -14 12 -7 12 7 0 23 -5 35 -12z m-193 -8 c-8 -5 -19 -10 -25
-10 -5 0 -3 5 5 10 8 5 20 10 25 10 6 0 3 -5 -5 -10z m170 -10 c22 -11 40 -24
40 -29 0 -5 14 -12 30 -16 17 -4 30 -13 30 -21 0 -8 8 -14 18 -14 20 0 73 -39
54 -40 -7 0 -22 5 -32 10 -16 8 -18 8 -14 -5 5 -12 -2 -15 -32 -14 -34 1 -46
9 -94 62 -43 48 -48 57 -25 43 17 -10 41 -28 55 -40 l25 -21 -23 26 c-18 20
-20 28 -10 32 8 4 6 6 -5 6 -11 1 -30 10 -44 21 -33 26 -23 25 27 0z m300 -41
c0 -14 -18 -20 -26 -8 -4 8 -3 9 4 5 16 -10 15 0 -4 32 l-16 27 21 -24 c12
-13 21 -27 21 -32z m17 36 c9 -25 -4 -29 -17 -6 -7 15 -7 21 0 21 6 0 13 -7
17 -15z m107 -27 c-14 -26 -19 -29 -22 -15 -2 10 4 27 14 38 25 27 28 17 8
-23z m-647 -4 c-3 -3 -12 -4 -19 -1 -8 3 -5 6 6 6 11 1 17 -2 13 -5z m-433
-20 c3 -8 2 -12 -4 -9 -6 3 -10 10 -10 16 0 14 7 11 14 -7z m396 12 c0 -4 -94
-34 -130 -41 -8 -2 -16 -4 -17 -4 -8 -2 -13 0 -15 6 -2 3 4 7 12 9 8 2 38 10
65 18 51 15 85 19 85 12z m294 -75 c15 -17 31 -21 78 -21 71 0 95 -11 93 -42
0 -18 -16 -31 -65 -56 -67 -34 -49 -35 29 -1 34 15 41 16 31 4 -7 -9 -10 -18
-7 -22 8 -7 -24 -63 -36 -63 -5 0 2 15 14 33 l23 32 -27 -24 c-25 -23 -27 -23
-60 -8 -18 9 -73 60 -122 114 -49 54 -80 91 -70 82 11 -8 45 -35 75 -59 l55
-44 -65 69 c-66 70 -63 70 25 1 l50 -40 -60 64 c-50 53 -53 58 -20 33 22 -17
49 -40 59 -52z m299 42 c-3 -7 -9 -11 -13 -8 -5 3 -10 0 -12 -7 -3 -7 -7 -5
-11 6 -4 9 -3 15 2 11 5 -3 13 4 16 16 5 16 9 18 15 9 5 -7 6 -19 3 -27z
m-188 17 c19 -8 19 -9 -2 -9 -12 -1 -25 4 -28 9 -7 12 2 12 30 0z m463 -19
c11 -7 10 -9 -3 -14 -11 -5 -14 -3 -9 5 5 8 2 9 -10 5 -10 -4 -15 -3 -11 3 7
12 16 12 33 1z m-263 -31 c3 -5 1 -10 -4 -10 -6 0 -11 5 -11 10 0 6 2 10 4 10
3 0 8 -4 11 -10z m234 -5 c16 -8 31 -12 33 -10 3 3 5 -2 5 -10 0 -19 -3 -19
-43 6 -50 30 -46 41 5 14z m-107 -37 c-7 -7 -12 -8 -12 -2 0 6 3 14 7 17 3 4
9 5 12 2 2 -3 -1 -11 -7 -17z m-92 -23 c0 -2 -8 -6 -17 -9 -10 -4 -14 -4 -10
0 4 4 -1 16 -10 27 -18 20 -18 20 10 2 15 -9 27 -19 27 -20z m262 13 c-7 -7
-12 -8 -12 -2 0 6 3 14 7 17 3 4 9 5 12 2 2 -3 -1 -11 -7 -17z m-612 -83 c13
-14 21 -25 18 -25 -2 0 -15 11 -28 25 -13 14 -21 25 -18 25 2 0 15 -11 28 -25z
m-413 -70 c0 -16 -24 -28 -39 -19 -8 5 11 22 38 34 0 0 1 -7 1 -15z m1570 -10
c0 -8 -4 -12 -9 -9 -5 3 -6 10 -3 15 9 13 12 11 12 -6z m-1389 -110 c-3 -3
-13 7 -23 22 l-17 28 23 -22 c12 -12 20 -25 17 -28z m-68 -50 c13 -14 19 -25
13 -25 -5 0 -20 11 -33 25 -13 14 -19 25 -13 25 5 0 20 -11 33 -25z m-5 -235
c3 -6 -1 -7 -9 -4 -18 7 -21 14 -7 14 6 0 13 -4 16 -10z m2299 -1295 c7 -19
-5 -19 -30 0 -19 14 -19 14 2 15 12 0 24 -7 28 -15z m396 -17 c25 -6 83 -10
130 -9 99 3 101 -8 3 -18 -44 -5 -86 -3 -122 6 -31 7 -90 13 -131 14 -124 2
-149 17 -30 17 58 1 125 -4 150 -10z"/>
<path d="M793 4856 c14 -18 7 -28 -10 -15 -15 13 -15 12 -5 -8 14 -26 32 -39
32 -22 0 6 9 1 20 -12 10 -13 19 -19 19 -14 0 6 -14 26 -32 45 -18 19 -29 31
-24 26z"/>
<path d="M1417 4289 c7 -7 15 -10 18 -7 3 3 -2 9 -12 12 -14 6 -15 5 -6 -5z"/>
<path d="M1780 4166 c0 -7 62 -106 67 -106 7 0 -47 99 -57 105 -5 3 -10 4 -10
1z"/>
<path d="M1596 3372 c-3 -5 1 -9 9 -9 8 0 12 4 9 9 -3 4 -7 8 -9 8 -2 0 -6 -4
-9 -8z"/>
<path d="M1475 2760 c-3 -5 -2 -10 4 -10 5 0 13 5 16 10 3 6 2 10 -4 10 -5 0
-13 -4 -16 -10z"/>
<path d="M1863 3966 c-30 -14 -29 -21 5 -22 15 -1 21 1 14 3 -10 4 -8 9 5 19
21 16 7 16 -24 0z"/>
<path d="M1325 3750 c-3 -6 1 -7 9 -4 18 7 21 14 7 14 -6 0 -13 -4 -16 -10z"/>
<path d="M821 2788 l-34 -43 30 28 c17 16 34 29 37 28 7 -1 9 6 4 20 -2 6 -19
-9 -37 -33z"/>
<path d="M884 2658 l-19 -21 28 18 c28 18 33 25 19 25 -5 0 -17 -10 -28 -22z"/>
<path d="M872 2435 c0 -16 2 -22 5 -12 2 9 2 23 0 30 -3 6 -5 -1 -5 -18z"/>
<path d="M840 2275 c0 -5 5 -17 10 -25 5 -8 10 -10 10 -5 0 6 -5 17 -10 25 -5
8 -10 11 -10 5z"/>
<path d="M620 2154 c0 -7 9 -22 20 -35 16 -19 19 -20 13 -5 -4 11 -2 17 3 13
5 -3 10 3 10 14 0 18 -1 19 -12 4 -11 -15 -13 -15 -23 2 -6 10 -11 13 -11 7z"/>
<path d="M1378 5663 c7 -3 16 -2 19 1 4 3 -2 6 -13 5 -11 0 -14 -3 -6 -6z"/>
<path d="M906 5358 c4 -13 1 -16 -15 -13 -15 3 -19 -1 -14 -13 3 -10 -3 -7
-16 8 -17 20 -20 21 -14 5 6 -18 5 -19 -13 -5 -17 14 -18 14 -6 -2 8 -9 11
-21 8 -26 -3 -5 1 -9 8 -9 8 0 12 7 9 16 -3 9 4 5 16 -9 14 -17 21 -20 21 -10
0 12 2 13 9 1 7 -11 10 -9 16 9 6 18 9 20 16 9 5 -8 9 -9 9 -4 0 6 -9 21 -20
35 -12 14 -18 18 -14 8z m8 -33 c-3 -6 -11 -12 -18 -12 -8 0 -12 6 -10 12 3 6
11 12 18 12 8 0 12 -6 10 -12z"/>
<path d="M775 5340 c10 -11 20 -20 23 -20 3 0 -3 9 -13 20 -10 11 -20 20 -23
20 -3 0 3 -9 13 -20z"/>
<path d="M1060 5265 c0 -5 5 -17 10 -25 5 -8 10 -10 10 -5 0 6 -5 17 -10 25
-5 8 -10 11 -10 5z"/>
<path d="M725 5220 c-3 -6 1 -7 9 -4 18 7 21 14 7 14 -6 0 -13 -4 -16 -10z"/>
<path d="M1192 5180 c0 -14 2 -19 5 -12 2 6 2 18 0 25 -3 6 -5 1 -5 -13z"/>
<path d="M890 4852 c6 -13 14 -21 18 -18 3 4 -2 14 -12 24 -18 16 -18 16 -6
-6z"/>
<path d="M529 4848 c15 -21 2 -24 -19 -5 -12 10 -12 9 -3 -3 6 -8 9 -23 8 -33
-2 -9 1 -15 6 -11 5 3 7 10 4 15 -9 13 9 11 25 -3 12 -11 12 -10 2 3 -6 9 -10
18 -7 21 3 3 -3 11 -12 19 -16 13 -17 12 -4 -3z"/>
<path d="M460 4846 c0 -3 9 -10 20 -16 11 -6 20 -8 20 -6 0 3 -9 10 -20 16
-11 6 -20 8 -20 6z"/>
<path d="M615 4800 c10 -11 20 -20 23 -20 3 0 -3 9 -13 20 -10 11 -20 20 -23
20 -3 0 3 -9 13 -20z"/>
<path d="M715 4800 c10 -11 20 -20 23 -20 3 0 -3 9 -13 20 -10 11 -20 20 -23
20 -3 0 3 -9 13 -20z"/>
<path d="M779 4413 c-13 -16 -12 -17 4 -4 9 7 17 15 17 17 0 8 -8 3 -21 -13z"/>
<path d="M2711 4305 c0 -6 9 -28 19 -50 l18 -40 -3 34 c-3 29 -36 83 -34 56z"/>
<path d="M2791 4275 c0 -5 4 -17 9 -25 8 -13 10 -13 10 -1 0 11 4 9 15 -5 14
-18 14 -17 3 9 -7 17 -14 23 -19 16 -5 -8 -8 -7 -12 2 -3 8 -6 10 -6 4z"/>
<path d="M2361 4214 c0 -11 3 -14 6 -6 3 7 2 16 -1 19 -3 4 -6 -2 -5 -13z"/>
<path d="M2896 4202 c-3 -5 1 -9 9 -9 8 0 12 4 9 9 -3 4 -7 8 -9 8 -2 0 -6 -4
-9 -8z"/>
<path d="M595 4180 c11 -5 27 -9 35 -9 9 0 8 4 -5 9 -11 5 -27 9 -35 9 -9 0
-8 -4 5 -9z"/>
<path d="M478 4163 c7 -3 16 -2 19 1 4 3 -2 6 -13 5 -11 0 -14 -3 -6 -6z"/>
<path d="M672 3740 c0 -19 2 -27 5 -17 2 9 2 25 0 35 -3 9 -5 1 -5 -18z"/>
<path d="M831 3704 c0 -11 3 -14 6 -6 3 7 2 16 -1 19 -3 4 -6 -2 -5 -13z"/>
<path d="M2235 3670 c-3 -5 -1 -10 6 -10 18 0 4 -11 -18 -14 -10 -2 -18 -8
-18 -15 0 -7 -11 -21 -25 -32 -21 -17 -22 -19 -3 -10 12 6 25 16 28 21 3 6 11
10 17 10 6 0 3 -10 -8 -21 -19 -22 -19 -22 3 -10 26 13 39 31 22 31 -8 0 -8 5
2 16 7 9 14 22 15 30 3 16 -12 19 -21 4z"/>
<path d="M1095 3173 l-17 -28 23 22 c12 12 20 25 17 28 -3 3 -13 -7 -23 -22z"/>
<path d="M478 3153 c6 -2 18 -2 25 0 6 3 1 5 -13 5 -14 0 -19 -2 -12 -5z"/>
<path d="M438 3143 c7 -3 16 -2 19 1 4 3 -2 6 -13 5 -11 0 -14 -3 -6 -6z"/>
<path d="M1969 3103 c-13 -16 -12 -17 4 -4 9 7 17 15 17 17 0 8 -8 3 -21 -13z"/>
<path d="M503 3070 c-24 -11 -43 -21 -43 -24 0 -3 19 3 43 13 23 10 49 20 57
24 13 5 13 5 0 6 -8 0 -34 -9 -57 -19z"/>
<path d="M1230 3030 c0 -5 5 -10 10 -10 6 0 10 5 10 10 0 6 -4 10 -10 10 -5 0
-10 -4 -10 -10z"/>
<path d="M615 3020 c-3 -6 1 -7 9 -4 18 7 21 14 7 14 -6 0 -13 -4 -16 -10z"/>
<path d="M58 2623 c6 -2 18 -2 25 0 6 3 1 5 -13 5 -14 0 -19 -2 -12 -5z"/>
<path d="M501 2559 c-46 -100 -47 -124 -1 -30 22 46 38 86 35 89 -2 3 -18 -24
-34 -59z"/>
<path d="M802 2435 c0 -16 2 -22 5 -12 2 9 2 23 0 30 -3 6 -5 -1 -5 -18z"/>
<path d="M1380 1907 c0 -2 15 -14 33 -27 l32 -23 -24 26 c-21 23 -41 35 -41
24z"/>
<path d="M880 1823 c0 -5 23 -33 51 -63 l51 -55 -47 63 c-44 60 -55 71 -55 55z"/>
<path d="M1420 1796 c0 -2 8 -10 18 -17 15 -13 16 -12 3 4 -13 16 -21 21 -21
13z"/>
<path d="M820 1771 c0 -5 5 -13 10 -16 6 -3 10 -2 10 4 0 5 -4 13 -10 16 -5 3
-10 2 -10 -4z"/>
<path d="M1519 1773 c-1 -4 -1 -12 0 -17 1 -4 -4 -15 -11 -24 -10 -12 -10 -14
-1 -8 20 12 35 44 23 51 -5 3 -11 3 -11 -2z"/>
<path d="M1537 1737 c-3 -8 1 -14 8 -14 7 0 11 6 8 14 -3 7 -6 13 -8 13 -2 0
-5 -6 -8 -13z"/>
<path d="M610 1730 c-8 -5 -10 -10 -5 -10 6 0 17 5 25 10 8 5 11 10 5 10 -5 0
-17 -5 -25 -10z"/>
<path d="M620 1680 c-14 -10 -26 -24 -26 -29 -1 -6 -2 -12 -4 -13 -1 -2 -3
-11 -5 -20 -2 -14 7 -11 42 14 39 28 42 34 28 44 -12 9 -13 13 -3 17 7 3 9 6
3 6 -5 0 -21 -8 -35 -19z m16 -17 c-2 -9 -14 -23 -27 -31 -23 -13 -23 -13 -5
2 15 12 16 16 5 16 -10 1 -9 5 5 15 25 19 25 19 22 -2z"/>
<path d="M1400 1632 c0 -5 10 -17 22 -28 l21 -19 -18 28 c-18 28 -25 33 -25
19z"/>
<path d="M625 1580 c-10 -11 -15 -20 -10 -20 4 0 2 -7 -5 -15 -7 -8 -9 -15 -4
-15 4 0 -3 -12 -17 -27 l-24 -28 31 28 c17 15 34 24 38 20 4 -5 7 -3 6 2 -1 6
-1 12 0 15 3 7 7 60 5 60 -1 0 -10 -9 -20 -20z m11 -15 c-1 -8 -8 -21 -16 -28
-10 -10 -11 -9 -4 3 5 8 9 18 10 23 3 14 4 17 8 17 2 0 3 -7 2 -15z"/>
<path d="M1420 1576 c0 -2 8 -10 18 -17 15 -13 16 -12 3 4 -13 16 -21 21 -21
13z"/>
<path d="M625 1490 c-4 -6 -10 -8 -15 -5 -5 3 -11 1 -14 -4 -5 -8 15 -8 34 -1
3 1 9 2 13 1 5 -1 6 3 2 9 -8 13 -12 13 -20 0z"/>
<path d="M629 1398 c-7 -37 -2 -51 16 -47 3 1 10 2 17 3 6 0 12 7 14 14 1 7 0
8 -3 2 -2 -6 -13 0 -24 12 -10 13 -19 20 -20 16z m15 -38 c-6 -6 -10 -3 -10
10 0 13 4 16 10 10 7 -7 7 -13 0 -20z"/>
<path d="M667 1327 c-3 -8 1 -14 9 -14 16 0 19 13 5 21 -5 3 -11 0 -14 -7z"/>
</g>
</svg>
